<svg xmlns="http://www.w3.org/2000/svg" width="28.338" height="28.338" viewBox="0 0 28.338 28.338">
  <g id="Group_104811" data-name="Group 104811" transform="translate(-6238.869 -2498)">
    <path id="Path_1723" data-name="Path 1723" d="M2359.033,953.221H2356.4a1.1,1.1,0,1,0,0,2.207h1.417V957.2a1.1,1.1,0,1,0,2.208,0v-1.918a1.96,1.96,0,0,0,1.546-1.8V951.47c0-1.106-1.092-1.941-2.539-1.941h-1.2a1.168,1.168,0,0,1-.331-.044v-1.593a1.168,1.168,0,0,1,.331-.044h2.636a1.1,1.1,0,0,0,0-2.207h-.444v-1.6a1.1,1.1,0,1,0-2.207,0v1.595c-1.44,0-2.523.837-2.523,1.94v2.215c0,1.108,1.091,1.941,2.538,1.941h1.2a1.179,1.179,0,0,1,.331.044v1.4A1.184,1.184,0,0,1,2359.033,953.221Z" transform="translate(3894.926 1561.57)" fill="#fff"/>
    <path id="Path_2440" data-name="Path 2440" d="M80.826,3054.17A14.169,14.169,0,1,1,95,3040,14.169,14.169,0,0,1,80.826,3054.17Zm0-25.434A11.265,11.265,0,1,0,92.091,3040,11.265,11.265,0,0,0,80.826,3028.736Z" transform="translate(6172.212 -527.832)" fill="#fff"/>
  </g>
</svg>
