<?xml version="1.0" encoding="UTF-8"?>
<svg version="1.1" xmlns="http://www.w3.org/2000/svg" width="1024" height="1024">
<path d="M0 0 C1.96759781 -0.01058945 1.96759781 -0.01058945 3.97494507 -0.02139282 C8.18512534 -0.04091313 12.39524746 -0.04608488 16.60546875 -0.046875 C17.32335697 -0.04716957 18.04124519 -0.04746414 18.7808876 -0.04776764 C40.25678594 -0.0491914 61.4879996 0.15412304 82.79296875 3.203125 C83.50598145 3.30258423 84.21899414 3.40204346 84.95361328 3.5045166 C136.3934535 10.6858371 185.35440504 25.05137528 232.79296875 46.203125 C233.68741699 46.59999512 234.58186523 46.99686523 235.50341797 47.40576172 C249.08460357 53.47908559 261.93489658 60.73954473 274.79296875 68.203125 C276.39841002 69.12765189 278.00387705 70.05213404 279.609375 70.9765625 C287.87718105 75.7621866 295.93967769 80.75569895 303.79296875 86.203125 C304.41606934 86.63318848 305.03916992 87.06325195 305.68115234 87.50634766 C320.73604279 97.91837798 335.34533005 108.84402302 349.18945312 120.82617188 C350.85203206 122.25384319 352.5311862 123.6597684 354.21484375 125.0625 C362.34848145 131.87337401 369.91006347 139.11195829 377.32177734 146.69921875 C380.58769852 150.03776412 383.90923207 153.31860318 387.24609375 156.5859375 C393.80529778 163.03424542 400.08342496 169.46192678 405.77734375 176.6953125 C407.72864268 179.1230914 409.78445136 181.37277503 411.91796875 183.640625 C418.47526371 190.84907991 424.13224099 198.78463133 429.8984375 206.62792969 C431.67817438 209.04708749 433.46915541 211.45752908 435.26171875 213.8671875 C442.24324176 223.31876349 448.57488259 233.02417495 454.55810547 243.13476562 C455.6782674 245.01100364 456.82303741 246.86781852 457.984375 248.71875 C465.70619074 261.10882702 472.22324106 274.17807751 478.79296875 287.203125 C479.26412109 288.13463379 479.73527344 289.06614258 480.22070312 290.02587891 C504.07685003 337.55096081 518.73368388 389.84293847 526.10546875 442.390625 C526.25266357 443.43710205 526.3998584 444.4835791 526.55151367 445.56176758 C527.01567408 449.1042159 527.41950236 452.65023356 527.79296875 456.203125 C527.87910431 457.00679504 527.96523987 457.81046509 528.0539856 458.63848877 C529.81891758 475.62042852 530.15701467 492.54766627 530.11102676 509.60852051 C530.10538302 511.73543371 530.10256482 513.86233894 530.09994507 515.98925781 C530.06372876 536.21291642 529.66246329 556.15055491 526.79296875 576.203125 C526.54353516 578.08161133 526.54353516 578.08161133 526.2890625 579.99804688 C514.84298934 665.50445264 482.15531908 746.78704859 421.79296875 828.203125 C420.9719165 829.23397217 420.9719165 829.23397217 420.13427734 830.28564453 C414.2088385 837.72511702 408.19777148 845.04341224 401.76171875 852.05078125 C399.93593554 854.04682599 398.1734681 856.08288166 396.41796875 858.140625 C391.81888456 863.42742272 386.77771012 868.28455276 381.79296875 873.203125 C378.97966575 876.0026373 376.18655025 878.82023546 373.41015625 881.65625 C366.94437751 888.23321048 360.49636836 894.53279256 353.24609375 900.24609375 C350.96112635 902.06897379 348.81637676 903.97281761 346.66796875 905.953125 C340.41226641 911.57208621 333.64559258 916.5568256 326.92578125 921.60107422 C325.00144475 923.04652936 323.08437463 924.50109511 321.16796875 925.95703125 C297.29220523 943.93560801 271.42753571 958.75434031 244.79296875 972.203125 C243.86500488 972.67250488 242.93704102 973.14188477 241.98095703 973.62548828 C179.11363854 1005.17517967 106.17087062 1024.15306799 35.55078125 1024.40625 C34.23608856 1024.41326431 32.92139587 1024.42027863 31.56686401 1024.42750549 C27.3505606 1024.44689192 23.13431224 1024.45193897 18.91796875 1024.453125 C18.19996094 1024.45356686 17.48195313 1024.45400871 16.7421875 1024.45446396 C-4.39285747 1024.461287 -25.24181159 1024.2032184 -46.20703125 1021.203125 C-48.08551758 1020.95369141 -48.08551758 1020.95369141 -50.00195312 1020.69921875 C-102.3499223 1013.69180592 -153.56184764 999.13155969 -201.20703125 976.203125 C-202.2645459 975.69555664 -203.32206055 975.18798828 -204.41162109 974.66503906 C-243.62595033 955.72407023 -280.78322289 932.18752304 -313.66796875 903.53173828 C-315.30171794 902.12138563 -316.95501449 900.73689086 -318.61328125 899.35546875 C-326.75340576 892.54192487 -334.31947859 885.29904916 -341.73583984 877.70703125 C-345.00176102 874.36848588 -348.32329457 871.08764682 -351.66015625 867.8203125 C-358.23711673 861.35453376 -364.53669881 854.90652461 -370.25 847.65625 C-372.07288004 845.3712826 -373.97672386 843.22653301 -375.95703125 841.078125 C-381.57599246 834.82242266 -386.56073185 828.05574883 -391.60498047 821.3359375 C-393.05043561 819.411601 -394.50500136 817.49453088 -395.9609375 815.578125 C-413.93951426 791.70236148 -428.75824656 765.83769196 -442.20703125 739.203125 C-442.91110107 737.8111792 -442.91110107 737.8111792 -443.62939453 736.39111328 C-478.42632502 667.05320171 -494.73221807 590.03995836 -494.51953125 512.765625 C-494.51730858 511.33719896 -494.51513207 509.90877285 -494.51300049 508.48034668 C-494.47051275 487.92752254 -494.17360909 467.58359346 -491.20703125 447.203125 C-491.10521545 446.49764526 -491.00339966 445.79216553 -490.89849854 445.06530762 C-483.41484141 393.55609631 -469.48884241 344.74600123 -448.20703125 297.203125 C-447.81161133 296.31302734 -447.41619141 295.42292969 -447.00878906 294.50585938 C-440.93394588 280.91922864 -433.66929608 268.06829372 -426.20703125 255.203125 C-425.3056719 253.63299483 -424.4046086 252.06269465 -423.50390625 250.4921875 C-418.10721201 241.1386843 -412.3532893 232.08159251 -406.20703125 223.203125 C-405.8104834 222.63029785 -405.41393555 222.0574707 -405.00537109 221.46728516 C-394.80192161 206.81157323 -383.91509528 192.68628261 -372.20703125 179.203125 C-371.25570312 178.10097656 -371.25570312 178.10097656 -370.28515625 176.9765625 C-368.60428664 175.04124933 -366.90882969 173.1200492 -365.20703125 171.203125 C-364.52253906 170.42582031 -363.83804688 169.64851562 -363.1328125 168.84765625 C-357.70544585 162.73831683 -352.02745101 156.93681665 -346.20703125 151.203125 C-343.39362127 148.40373533 -340.60056433 145.5860478 -337.82421875 142.75 C-331.37591083 136.19079597 -324.94822947 129.91266879 -317.71484375 124.21875 C-315.28706485 122.26745107 -313.03738122 120.21164239 -310.76953125 118.078125 C-288.20901244 97.55879599 -261.11878982 80.53293257 -234.63085938 65.57373047 C-233.03045281 64.66874634 -231.43272776 63.75900162 -229.83789062 62.84423828 C-161.7000944 23.78175684 -78.81182363 0.28361483 0 0 Z " fill="#0052B4" transform="translate(494.20703125,-0.203125)"/>
<path d="M0 0 C337.92 0 675.84 0 1024 0 C1024 37.14682025 1024 37.14682025 1022.8125 48 C1022.6786792 49.30227539 1022.5448584 50.60455078 1022.40698242 51.94628906 C1013.14158134 139.51271648 982.08401869 221.2578742 916 316 C915.45263184 316.68723145 914.90526367 317.37446289 914.34130859 318.08251953 C908.41586975 325.52199202 902.40480273 332.84028724 895.96875 339.84765625 C894.14296679 341.84370099 892.38049935 343.87975666 890.625 345.9375 C886.02591581 351.22429772 880.98474137 356.08142776 876 361 C873.186697 363.7995123 870.3935815 366.61711046 867.6171875 369.453125 C861.15140876 376.03008548 854.70339961 382.32966756 847.453125 388.04296875 C845.1681576 389.86584879 843.02340801 391.76969261 840.875 393.75 C834.61929766 399.36896121 827.85262383 404.3537006 821.1328125 409.39794922 C819.208476 410.84340436 817.29140588 412.29797011 815.375 413.75390625 C791.49923648 431.73248301 765.63456696 446.55121531 739 460 C738.07203613 460.46937988 737.14407227 460.93875977 736.18798828 461.42236328 C673.32066979 492.97205467 600.37790187 511.94994299 529.7578125 512.203125 C528.44311981 512.21013931 527.12842712 512.21715363 525.77389526 512.22438049 C521.55759185 512.24376692 517.34134349 512.24881397 513.125 512.25 C512.40699219 512.25044186 511.68898438 512.25088371 510.94921875 512.25133896 C489.81417378 512.258162 468.96521966 512.0000934 448 509 C446.74767578 508.83371094 445.49535156 508.66742187 444.20507812 508.49609375 C391.85710895 501.48868092 340.64518361 486.92843469 293 464 C291.94248535 463.49243164 290.8849707 462.98486328 289.79541016 462.46191406 C250.58108092 443.52094523 213.42380836 419.98439804 180.5390625 391.32861328 C178.90531331 389.91826063 177.25201676 388.53376586 175.59375 387.15234375 C167.45362549 380.33879987 159.88755266 373.09592416 152.47119141 365.50390625 C149.20527023 362.16536088 145.88373668 358.88452182 142.546875 355.6171875 C135.96991452 349.15140876 129.67033244 342.70339961 123.95703125 335.453125 C122.13415121 333.1681576 120.23030739 331.02340801 118.25 328.875 C112.63103879 322.61929766 107.6462994 315.85262383 102.60205078 309.1328125 C101.15659564 307.208476 99.70202989 305.29140588 98.24609375 303.375 C80.26751699 279.49923648 65.44878469 253.63456696 52 227 C51.53062012 226.07203613 51.06124023 225.14407227 50.57763672 224.18798828 C24.36391756 171.95336542 8.04444593 114.11638651 2 56 C1.89848633 55.08702148 1.79697266 54.17404297 1.69238281 53.23339844 C-0.2584208 35.36846822 0 18.11614663 0 0 Z " fill="#EFEFEF" transform="translate(0,512)"/>
<path d="M0 0 C337.92 0 675.84 0 1024 0 C1024 37.14682025 1024 37.14682025 1022.8125 48 C1022.6786792 49.30227539 1022.5448584 50.60455078 1022.40698242 51.94628906 C1020.12858525 73.47920477 1016.47446616 94.68051232 1011.8125 115.8125 C1011.63828522 116.60692505 1011.46407043 117.4013501 1011.28457642 118.21984863 C1010.78802864 120.46758711 1010.28119097 122.7126897 1009.76953125 124.95703125 C1009.6207251 125.62734879 1009.47191895 126.29766632 1009.31860352 126.98829651 C1008.57521468 130.1801028 1007.84619103 132.23071346 1006 135 C1003.14891436 135.37401349 1003.14891436 135.37401349 999.41010606 135.37259549 C998.72076127 135.37642975 998.03141647 135.38026401 997.32118244 135.38421445 C994.98335874 135.39349053 992.64612936 135.3811625 990.30832481 135.36914349 C988.61932339 135.37136018 986.93032327 135.37489355 985.24132705 135.37963298 C980.56101265 135.38889453 975.88089182 135.37927003 971.20059176 135.36679858 C966.12364399 135.35654221 961.04671691 135.36359949 955.96976531 135.36853105 C947.05892345 135.37476875 938.14814151 135.36979298 929.23730659 135.35761642 C915.98709474 135.33956026 902.73692091 135.33860444 889.486699 135.34124239 C867.20104573 135.34519037 844.91541633 135.33515787 822.62977219 135.31719017 C800.55392709 135.29943408 778.47809295 135.28786717 756.40224075 135.28463173 C755.71712356 135.28452849 755.03200637 135.28442526 754.32612805 135.28431889 C748.06880981 135.28337932 741.81149157 135.28251625 735.55417331 135.28174497 C719.99788001 135.27982657 704.44158697 135.27694847 688.88529396 135.27341938 C687.82259308 135.27317945 687.82259308 135.27317945 686.73842349 135.27293468 C652.25985632 135.26506657 617.78129639 135.24614243 583.30273438 135.22631836 C571.33510341 135.21944349 559.36747242 135.21261746 547.39984131 135.20599365 C546.65762654 135.2055828 545.91541178 135.20517196 545.15070565 135.20474866 C510.65907376 135.185723 476.16744064 135.17454177 441.67580488 135.16538927 C439.43709668 135.16479507 437.19838847 135.1641975 434.95968027 135.16359923 C420.12387702 135.15963995 405.28807373 135.15581599 390.45227042 135.15208265 C360.93168705 135.14465278 331.41110391 135.13642772 301.89052091 135.12765651 C300.48461437 135.12723879 299.07870784 135.12682163 297.6728013 135.12640502 C210.94792254 135.10069992 124.22305184 135.05764657 17 135 C16.03462862 131.17849878 15.07302707 127.35605831 14.11206055 123.53344727 C13.84091179 122.46027504 13.56976303 121.38710281 13.29039764 120.28141022 C11.1801131 111.87526796 9.35871678 103.4672772 7.8125 94.9375 C7.68959595 94.26887939 7.56669189 93.60025879 7.44006348 92.91137695 C5.19146778 80.65772071 3.32356911 68.38940232 2 56 C1.89703613 55.07977051 1.79407227 54.15954102 1.68798828 53.21142578 C-0.26047156 35.35516114 0 18.1060105 0 0 Z " fill="#EFEFEF" transform="translate(0,512)"/>
<path d="M0 0 C326.04 0 652.08 0 988 0 C987.11837366 7.05301072 985.71799602 12.97788577 983.625 19.6875 C983.2741333 20.81526855 982.9232666 21.94303711 982.56176758 23.10498047 C975.59749854 45.05124442 967.01520195 66.27877745 957 87 C956.23018799 88.60319092 956.23018799 88.60319092 955.44482422 90.23876953 C953.83179544 93.58309297 952.20099972 96.9180884 950.5625 100.25 C949.84731201 101.7198938 949.84731201 101.7198938 949.11767578 103.21948242 C948.11929538 105.22033629 947.07059832 107.19680708 945.97527248 109.14627904 C944.41681662 112.00837019 943.31705727 114.87808713 942.23838633 117.9506548 C939.84921102 123.9127212 937.15998351 129.01474079 932 133 C921.97009114 136.65216398 910.49865024 135.71986851 899.98187249 135.53834428 C895.49056689 135.48296018 891.00056178 135.54392051 886.50935763 135.58988172 C878.641901 135.65436894 870.77726034 135.64462803 862.90979767 135.58598328 C851.21142997 135.49902168 839.51527508 135.5265797 827.8167925 135.57681783 C806.92482749 135.6627762 786.03417427 135.63507784 765.14223632 135.56003189 C746.86153749 135.49478816 728.58129383 135.46879005 710.3004818 135.4816227 C709.08817302 135.48242477 707.87586423 135.48322685 706.62681882 135.48405324 C701.70576975 135.48737112 696.78472087 135.49088317 691.86367214 135.49467994 C645.69786562 135.52980288 599.53286075 135.45233309 553.36725826 135.32156264 C512.3403717 135.2059642 471.3143662 135.17905385 430.28735352 135.23022461 C419.78026525 135.24323439 409.27317695 135.25615935 398.76608753 135.26821423 C397.47259026 135.26970146 396.17909298 135.2711887 394.84639882 135.27272101 C360.57477142 135.3107811 326.30321637 135.27874801 292.03162116 135.22473413 C288.34476064 135.21899504 284.65790008 135.21327914 280.97103947 135.2076 C278.52522663 135.20382377 276.07941386 135.19999554 273.63360118 135.19611496 C255.36113031 135.16780586 237.08888746 135.17448455 218.81641579 135.19725609 C198.04479382 135.22277407 177.2740257 135.19362559 156.50261692 135.09278461 C144.87286152 135.03777926 133.24478406 135.0239508 121.61497693 135.06922727 C113.85162755 135.09527734 106.08971716 135.06696598 98.32667016 134.99396053 C93.89938621 134.95383298 89.47549808 134.93748311 85.04822991 134.98682334 C59.4613293 135.24946761 59.4613293 135.24946761 53.75846528 131.54325916 C50.44916202 128.13671837 48.82102426 124.4430731 47.58144923 119.90978793 C46.63481518 116.8005392 45.02409845 114.18142175 43.41015625 111.3671875 C42.28787654 109.20643415 41.17207789 107.04230332 40.0625 104.875 C39.46332764 103.70831787 38.86415527 102.54163574 38.24682617 101.33959961 C36.4852871 97.89940602 34.74058006 94.45084895 33 91 C32.52884766 90.06849121 32.05769531 89.13698242 31.57226562 88.17724609 C19.31057789 63.75009463 10.24402674 38.01110072 2 12 C1.76297363 11.26475098 1.52594727 10.52950195 1.28173828 9.77197266 C0.19028809 6.22881077 0 3.84522205 0 0 Z " fill="#D80027" transform="translate(18,646)"/>
<path d="M0 0 C163.35 0 326.7 0 495 0 C499.51298246 15.7954386 499.51298246 15.7954386 500.78125 22.00390625 C500.92025223 22.68216461 501.05925446 23.36042297 501.20246887 24.05923462 C501.64273886 26.2255191 502.0727385 28.39361466 502.5 30.5625 C502.64996429 31.31745758 502.79992859 32.07241516 502.95443726 32.85025024 C505.91478423 47.82507268 508.26693369 62.82945602 510 78 C510.11714355 79.0096582 510.23428711 80.01931641 510.35498047 81.05957031 C512.33254877 98.80185474 512 116.02082786 512 134 C343.04 134 174.08 134 0 134 C0 89.78 0 45.56 0 0 Z " fill="#D80027" transform="translate(512,378)"/>
<path d="M0 0 C55.64549028 -0.33061159 111.29005525 -0.60759874 166.93624642 -0.76597994 C173.50396745 -0.78474081 180.07168638 -0.80415562 186.6394043 -0.82397461 C187.94693277 -0.82790927 189.25446125 -0.83184392 190.6016118 -0.83589781 C211.78019639 -0.90118903 232.95817097 -1.01946859 254.13639354 -1.15729194 C275.86314736 -1.297507 297.58958147 -1.38086915 319.31676918 -1.41132742 C332.72678265 -1.4319221 346.1350721 -1.49698986 359.5445549 -1.618747 C368.73684733 -1.69796657 377.92824705 -1.72201838 387.12085616 -1.70252066 C392.42732711 -1.69290022 397.73078393 -1.70775854 403.03672028 -1.78808212 C407.89615299 -1.86110948 412.75054839 -1.86477391 417.61021353 -1.81348342 C419.36685656 -1.80714632 421.12381426 -1.8261796 422.87983804 -1.87324774 C435.63863402 -2.19532089 435.63863402 -2.19532089 439.56093045 1.45116989 C442.38024975 5.02448883 444.3450823 8.92844115 446.15191747 13.0880435 C447.45904066 16.03488249 449.03175358 18.81150394 450.58984375 21.6328125 C451.71212346 23.79356585 452.82792211 25.95769668 453.9375 28.125 C454.83625854 29.87502319 454.83625854 29.87502319 455.75317383 31.66040039 C457.5147129 35.10059398 459.25941994 38.54915105 461 42 C461.47115234 42.93150879 461.94230469 43.86301758 462.42773438 44.82275391 C472.48174498 64.85187593 480.3960766 85.7684719 487.5 107 C487.90927734 108.22130615 488.31855469 109.4426123 488.74023438 110.70092773 C491.17615091 118.11527419 493.09385259 125.37541035 495 133 C331.65 133 168.3 133 0 133 C0 89.11 0 45.22 0 0 Z " fill="#F0F0F0" transform="translate(512,245)"/>
<path d="M0 0 C40.54488167 -0.24264148 81.08907691 -0.44569121 121.63447721 -0.56171862 C126.42453231 -0.57547589 131.21458587 -0.58971349 136.00463867 -0.60424805 C137.43501871 -0.60857617 137.43501871 -0.60857617 138.89429531 -0.61299173 C154.32135173 -0.66081641 169.74795584 -0.7475241 185.17474421 -0.84868076 C201.01190255 -0.9516598 216.84882452 -1.01267007 232.68630391 -1.03497344 C242.45396903 -1.05004414 252.22035561 -1.09758605 261.98762701 -1.18708114 C268.69149748 -1.24536651 275.39471002 -1.2627703 282.09881528 -1.24851515 C285.96348528 -1.24148984 289.8259266 -1.25201605 293.69019699 -1.31126022 C320.4811241 -1.70214565 320.4811241 -1.70214565 328.18818665 5.37760925 C329.84708429 7.20327056 331.4617846 9.07156177 333 11 C334.25050641 12.10330578 335.52298609 13.18383242 336.83984375 14.20703125 C344.8291956 20.90228942 352.24666139 28.04146874 359.52880859 35.49609375 C362.79472977 38.83463912 366.11626332 42.11547818 369.453125 45.3828125 C376.01232903 51.83112042 382.29045621 58.25880178 387.984375 65.4921875 C389.93567393 67.9199664 391.99148261 70.16965003 394.125 72.4375 C401.39503691 80.42947437 407.6096877 89.30431147 414 98 C414.5892627 98.79599609 415.17852539 99.59199219 415.78564453 100.41210938 C421.72747484 108.44261376 427.49125573 116.54201217 432.8125 125 C433.23958252 125.67708008 433.66666504 126.35416016 434.10668945 127.05175781 C437 131.7437441 437 131.7437441 437 134 C292.79 134 148.58 134 0 134 C0 89.78 0 45.56 0 0 Z " fill="#D80127" transform="translate(512,111)"/>
<path d="M0 0 C209.55 0 419.1 0 635 0 C633.13851174 3.72297651 632.45693752 4.72606599 629.34375 7.07421875 C628.20087524 7.93901855 628.20087524 7.93901855 627.03491211 8.82128906 C626.19839111 9.43713867 625.36187012 10.05298828 624.5 10.6875 C623.62287354 11.3381543 622.74574707 11.98880859 621.84204102 12.65917969 C597.5859428 30.4234962 571.80664602 45.46432619 545 59 C543.6080542 59.70406982 543.6080542 59.70406982 542.18798828 60.42236328 C479.32066979 91.97205467 406.37790187 110.94994299 335.7578125 111.203125 C333.78577347 111.21364647 333.78577347 111.21364647 331.77389526 111.22438049 C327.55759185 111.24376692 323.34134349 111.24881397 319.125 111.25 C318.04798828 111.25066278 318.04798828 111.25066278 316.94921875 111.25133896 C295.81417378 111.258162 274.96521966 111.0000934 254 108 C252.74767578 107.83371094 251.49535156 107.66742187 250.20507812 107.49609375 C197.85710895 100.48868092 146.64518361 85.92843469 99 63 C97.94248535 62.49243164 96.8849707 61.98486328 95.79541016 61.46191406 C64.63472957 46.41094949 35.56609557 28.26400886 7.625 7.875 C6.83456299 7.30144775 6.04412598 6.72789551 5.22973633 6.13696289 C4.52743896 5.61481201 3.8251416 5.09266113 3.1015625 4.5546875 C2.49650879 4.10593262 1.89145508 3.65717773 1.26806641 3.19482422 C0.84960449 2.80053223 0.43114258 2.40624023 0 2 C0 1.34 0 0.68 0 0 Z " fill="#D80128" transform="translate(194,913)"/>
<path d="M0 0 C37.30772453 0 37.30772453 0 48.1875 1.125 C48.83925201 1.18868774 49.49100403 1.25237549 50.1625061 1.31799316 C107.46869236 6.94790792 162.46949312 22.57787152 215 46 C215.89444824 46.39687012 216.78889648 46.79374023 217.71044922 47.20263672 C231.29163482 53.27596059 244.14192783 60.53641973 257 68 C258.60544127 68.92452689 260.2109083 69.84900904 261.81640625 70.7734375 C270.08400596 75.55894217 278.1482508 80.55065168 286 86 C286.94262695 86.65307129 286.94262695 86.65307129 287.90429688 87.31933594 C296.05303864 92.97840016 304.10800405 98.75830531 312.0625 104.6875 C312.75956055 105.20473633 313.45662109 105.72197266 314.17480469 106.25488281 C315.80272767 107.4776853 317.40449436 108.73519135 319 110 C319 110.33 319 110.66 319 111 C213.73 111 108.46 111 0 111 C0 74.37 0 37.74 0 0 Z " fill="#F0F0F0" transform="translate(512,0)"/>
<path d="M0 0 C2 1 2 1 2.80996704 2.89109802 C3.07199921 3.71779495 3.33403137 4.54449188 3.60400391 5.39624023 C4.05424423 6.79790688 4.05424423 6.79790688 4.51358032 8.22789001 C4.9902565 9.75283836 4.9902565 9.75283836 5.4765625 11.30859375 C5.80667328 12.34564957 6.13678406 13.38270538 6.47689819 14.45118713 C7.17469733 16.64837341 7.86881689 18.84673109 8.55957031 21.04614258 C9.62014856 24.42205745 10.69186835 27.79427198 11.765625 31.16601562 C12.44076188 33.2966667 13.11526249 35.42751952 13.7890625 37.55859375 C14.11089508 38.57320175 14.43272766 39.58780975 14.76431274 40.63316345 C15.05816864 41.57076004 15.35202454 42.50835663 15.65478516 43.47436523 C16.04544662 44.71560402 16.04544662 44.71560402 16.44400024 45.98191833 C17 48 17 48 17 50 C34.49 50 51.98 50 70 50 C64.37188209 55.62811791 64.37188209 55.62811791 60.953125 58.12890625 C60.19813721 58.68368652 59.44314941 59.2384668 58.6652832 59.81005859 C57.86823975 60.38836426 57.07119629 60.96666992 56.25 61.5625 C55.42395264 62.16658691 54.59790527 62.77067383 53.74682617 63.39306641 C45.56544792 69.3574696 37.29775918 75.19900574 29 81 C29.5757093 85.83841608 30.5715997 90.18091816 32.14453125 94.7890625 C32.35559006 95.41420746 32.56664886 96.03935242 32.78410339 96.68344116 C33.45451175 98.66595934 34.1330534 100.64556334 34.8125 102.625 C37.38597846 110.17901021 39.95455386 117.73502994 42.38671875 125.3359375 C42.72276123 126.38056152 43.05880371 127.42518555 43.4050293 128.50146484 C44 131 44 131 43 133 C42.27039063 132.42894531 41.54078125 131.85789062 40.7890625 131.26953125 C32.01875795 124.44468653 23.05636978 117.90837094 14.01318359 111.45068359 C12.24990025 110.18007607 10.50567787 108.88930665 8.76953125 107.58203125 C7.89683594 106.93621094 7.02414063 106.29039062 6.125 105.625 C5.40570313 105.08101563 4.68640625 104.53703125 3.9453125 103.9765625 C2.07092316 102.79938196 2.07092316 102.79938196 0.09350586 103.29956055 C-2.08278938 104.02769944 -3.58027476 104.89778397 -5.44140625 106.23046875 C-6.09858643 106.69727051 -6.7557666 107.16407227 -7.43286133 107.64501953 C-8.13564209 108.15403809 -8.83842285 108.66305664 -9.5625 109.1875 C-10.29686279 109.7119873 -11.03122559 110.23647461 -11.7878418 110.77685547 C-18.5007344 115.59003264 -25.14304203 120.50197134 -31.75415039 125.45385742 C-32.51203857 126.0182251 -33.26992676 126.58259277 -34.05078125 127.1640625 C-35.05105347 127.91357178 -35.05105347 127.91357178 -36.0715332 128.67822266 C-37.98268094 129.98812946 -39.90488332 131.01677437 -42 132 C-41.38438103 126.27177559 -39.88880511 121.1805974 -38.0234375 115.7421875 C-37.42935912 113.96495348 -36.83561914 112.18760632 -36.2421875 110.41015625 C-35.30733281 107.63268228 -34.36873 104.85659233 -33.42382812 102.08251953 C-32.50907377 99.38912898 -31.60913983 96.69113501 -30.7109375 93.9921875 C-30.42455414 93.16500214 -30.13817078 92.33781677 -29.84310913 91.48556519 C-27.90725471 85.79491351 -27.90725471 85.79491351 -29 80 C-30.96216737 78.27741721 -32.77065326 76.91375344 -34.9375 75.5 C-36.21039032 74.63131347 -37.48248556 73.76146109 -38.75390625 72.890625 C-39.77895264 72.19743164 -39.77895264 72.19743164 -40.82470703 71.49023438 C-44.72721344 68.81673279 -48.54597552 66.02720855 -52.375 63.25 C-53.11097412 62.71955078 -53.84694824 62.18910156 -54.60522461 61.64257812 C-56.74140312 60.1012391 -58.87226073 58.55296571 -61 57 C-62.14710449 56.1637207 -62.14710449 56.1637207 -63.31738281 55.31054688 C-64.05053711 54.76978516 -64.78369141 54.22902344 -65.5390625 53.671875 C-66.53607178 52.93855957 -66.53607178 52.93855957 -67.55322266 52.19042969 C-68.03065918 51.79758789 -68.5080957 51.40474609 -69 51 C-69 50.67 -69 50.34 -69 50 C-51.51 50 -34.02 50 -16 50 C-14.515 44.555 -14.515 44.555 -13 39 C-11.90451312 35.77584193 -10.78813186 32.57377479 -9.625 29.375 C-7.0042983 22.04790258 -4.63088045 14.69163115 -2.51025391 7.20458984 C-1.08177289 2.16354579 -1.08177289 2.16354579 0 0 Z " fill="#ECEDEF" transform="translate(213,328)"/>
<path d="M0 0 C1.78090395 2.67135592 2.63432651 4.56380656 3.60400391 7.56323242 C3.90830322 8.49679565 4.21260254 9.43035889 4.52612305 10.39221191 C4.83976807 11.37008667 5.15341309 12.34796143 5.4765625 13.35546875 C5.91585083 14.70735291 5.91585083 14.70735291 6.36401367 16.08654785 C7.45606597 19.45189515 8.54004945 22.81985646 9.625 26.1875 C12.05875 33.715625 14.4925 41.24375 17 49 C34.49 49.33 51.98 49.66 70 50 C66.2445034 53.7554966 63.08733797 56.51731735 58.8125 59.5 C57.58159013 60.36525822 56.3511461 61.23117941 55.12109375 62.09765625 C54.46351074 62.55930176 53.80592773 63.02094727 53.12841797 63.49658203 C49.1885545 66.27952298 45.28351446 69.11078883 41.375 71.9375 C40.60518799 72.49308594 39.83537598 73.04867187 39.04223633 73.62109375 C34.91889233 76.58793718 34.91889233 76.58793718 30.88525391 79.67407227 C29 81 29 81 27 81 C27.34256836 81.99217529 27.68513672 82.98435059 28.03808594 84.0065918 C29.32997557 87.75014732 30.61899492 91.49468623 31.90722656 95.23950195 C32.46115299 96.84848813 33.01581853 98.45722007 33.57128906 100.06567383 C35.40270616 105.36984122 37.21585974 110.67973275 39 116 C39.22421631 116.66710999 39.44843262 117.33421997 39.67944336 118.02154541 C40.28166073 119.82975081 40.86792008 121.64324853 41.453125 123.45703125 C41.77958008 124.46354736 42.10603516 125.47006348 42.44238281 126.50708008 C43 129 43 129 42 132 C40.8984375 131.20442708 39.796875 130.40885417 38.6953125 129.61328125 C37.61467529 128.83283447 37.61467529 128.83283447 36.51220703 128.03662109 C34.9063785 126.8768378 33.30058484 125.71700623 31.69482422 124.55712891 C27.44319105 121.48618297 23.19098878 118.41603163 18.9375 115.34765625 C17.72682861 114.47403442 17.72682861 114.47403442 16.49169922 113.58276367 C14.94145774 112.46413987 13.39100971 111.34580225 11.84033203 110.2277832 C11.13247559 109.71691162 10.42461914 109.20604004 9.6953125 108.6796875 C9.07672363 108.23351074 8.45813477 107.78733398 7.82080078 107.32763672 C6.49473111 106.36073314 5.19480397 105.35766953 3.91186523 104.33422852 C2.07619062 102.78667229 2.07619062 102.78667229 -0.28515625 102.97265625 C-4.20829808 104.45724086 -7.16038361 106.85676589 -10.4375 109.4375 C-11.86348449 110.53528301 -13.29058916 111.63161231 -14.71875 112.7265625 C-15.43417969 113.27731445 -16.14960938 113.82806641 -16.88671875 114.39550781 C-20.01941429 116.77398229 -23.22277474 119.04680386 -26.4375 121.3125 C-31.7413678 125.06489118 -36.92375721 128.94437746 -42 133 C-43.14338564 129.56984309 -42.85014163 128.80598832 -41.73657227 125.484375 C-41.43618546 124.57333008 -41.13579865 123.66228516 -40.8263092 122.72363281 C-40.49304123 121.74233398 -40.15977325 120.76103516 -39.81640625 119.75 C-39.48205063 118.7403418 -39.14769501 117.73068359 -38.8032074 116.69042969 C-37.73138172 113.45741656 -36.64771755 110.22854021 -35.5625 107 C-34.48240113 103.77098191 -33.40488792 100.54115913 -32.33250427 97.30957031 C-31.66408026 95.29688039 -30.99091957 93.28575629 -30.31263733 91.27636719 C-30.00909836 90.36532227 -29.70555939 89.45427734 -29.39282227 88.515625 C-29.12333267 87.71415039 -28.85384308 86.91267578 -28.57618713 86.08691406 C-27.86693105 83.87886496 -27.86693105 83.87886496 -28 81 C-29.9237374 79.39791644 -31.80435692 78.01519722 -33.875 76.625 C-35.15812433 75.73650293 -36.44064631 74.84713552 -37.72265625 73.95703125 C-38.41246582 73.48217285 -39.10227539 73.00731445 -39.81298828 72.51806641 C-43.68180732 69.83261019 -47.49613805 67.07176628 -51.3125 64.3125 C-52.07916992 63.75868652 -52.84583984 63.20487305 -53.63574219 62.63427734 C-65.69045927 53.9031059 -65.69045927 53.9031059 -69 51 C-69 50.67 -69 50.34 -69 50 C-51.51 50 -34.02 50 -16 50 C-15.34 47.03 -14.68 44.06 -14 41 C-13.52221403 39.43542439 -13.01375938 37.87915554 -12.44921875 36.34375 C-12.16522217 35.55677734 -11.88122559 34.76980469 -11.58862305 33.95898438 C-11.29125244 33.14751953 -10.99388184 32.33605469 -10.6875 31.5 C-8.06082319 24.19170245 -5.67850954 16.86343259 -3.59838867 9.38085938 C-2.66705 6.06979689 -1.69363317 3.00409142 0 0 Z " fill="#ECEDEF" transform="translate(397,328)"/>
<path d="M0 0 C2.23491977 2.23491977 2.66403444 3.56227866 3.60400391 6.54150391 C3.90830322 7.49549072 4.21260254 8.44947754 4.52612305 9.43237305 C4.83976807 10.43695557 5.15341309 11.44153809 5.4765625 12.4765625 C5.91585083 13.85944458 5.91585083 13.85944458 6.36401367 15.27026367 C7.45776719 18.71970687 8.54073167 22.17256357 9.625 25.625 C12.05875 33.33875 14.4925 41.0525 17 49 C34.49 49.33 51.98 49.66 70 50 C64.37868481 55.62131519 64.37868481 55.62131519 61.42578125 57.65625 C60.76658691 58.11539795 60.10739258 58.5745459 59.42822266 59.04760742 C58.73003418 59.52689697 58.0318457 60.00618652 57.3125 60.5 C55.80521684 61.54706557 54.29873491 62.59528528 52.79296875 63.64453125 C51.62193604 64.45978271 51.62193604 64.45978271 50.42724609 65.29150391 C47.92962432 67.04953621 45.45608928 68.83710539 42.98828125 70.63671875 C41.76854614 71.52617187 41.76854614 71.52617187 40.52416992 72.43359375 C38.94809201 73.58578096 37.37397011 74.7406495 35.80200195 75.8984375 C35.08616943 76.42050781 34.37033691 76.94257813 33.6328125 77.48046875 C33.00262207 77.94348389 32.37243164 78.40649902 31.72314453 78.88354492 C30 80 30 80 27 81 C27.41362793 82.18964355 27.82725586 83.37928711 28.25341797 84.60498047 C29.79939165 89.05698212 31.33672395 93.51192868 32.87158203 97.96777344 C33.53462507 99.88882368 34.19994895 101.80908837 34.86767578 103.72851562 C35.8319917 106.5018248 36.7878257 109.27793945 37.7421875 112.0546875 C38.03809784 112.8998996 38.33400818 113.74511169 38.6388855 114.61593628 C40.59498792 120.34233699 41.95285572 126.04118208 43 132 C36.39080768 128.00004793 30.14786939 123.67714243 24.06762695 118.92016602 C19.94562739 115.70345687 15.75427031 112.60206788 11.5 109.5625 C10.92467529 109.14959717 10.34935059 108.73669434 9.7565918 108.3112793 C6.58419344 106.05552754 3.36686806 103.95353725 0 102 C-0.45101074 102.32572998 -0.90202148 102.65145996 -1.36669922 102.98706055 C-2.74030073 103.97910609 -4.11391896 104.97112849 -5.48754883 105.96313477 C-7.0942768 107.12361331 -8.70088266 108.28426094 -10.30737305 109.44506836 C-14.5445476 112.50637234 -18.78365025 115.56492531 -23.02734375 118.6171875 C-23.82994629 119.19509033 -24.63254883 119.77299316 -25.45947266 120.3684082 C-26.99615411 121.47476145 -28.53355771 122.58011253 -30.07177734 123.68432617 C-33.07816855 125.85026157 -36.02187231 128.01796549 -38.88671875 130.37109375 C-41 132 -41 132 -43 132 C-41.30114236 125.22642274 -39.25138427 118.59504734 -37.046875 111.97265625 C-36.78096558 111.17088959 -36.51505615 110.36912292 -36.24108887 109.5430603 C-35.12928216 106.19509074 -34.01520958 102.84800336 -32.88671875 99.50561523 C-32.05568724 97.03932054 -31.23777728 94.56899027 -30.421875 92.09765625 C-30.16363953 91.34347916 -29.90540405 90.58930206 -29.63934326 89.81227112 C-28.43160146 86.12077999 -27.71438149 83.69339932 -29 80 C-30.37949388 78.57949308 -30.37949388 78.57949308 -32.18359375 77.44140625 C-32.85551758 76.97935791 -33.52744141 76.51730957 -34.21972656 76.04125977 C-34.9515918 75.55326904 -35.68345703 75.06527832 -36.4375 74.5625 C-37.9837507 73.50098662 -39.52929954 72.43845029 -41.07421875 71.375 C-42.28343994 70.54935547 -42.28343994 70.54935547 -43.51708984 69.70703125 C-47.63230908 66.87776745 -51.69379552 63.9754742 -55.75 61.0625 C-56.87426392 60.26598022 -56.87426392 60.26598022 -58.02124023 59.45336914 C-58.73094971 58.94410889 -59.44065918 58.43484863 -60.171875 57.91015625 C-60.7915918 57.46808838 -61.41130859 57.02602051 -62.04980469 56.57055664 C-64.53284162 54.57088506 -66.74565322 52.25434678 -69 50 C-51.51 50 -34.02 50 -16 50 C-15.34 47.03 -14.68 44.06 -14 41 C-13.56050149 39.4324292 -13.09869307 37.87055261 -12.59545898 36.32226562 C-12.33856796 35.52534302 -12.08167694 34.72842041 -11.81700134 33.90734863 C-11.54610184 33.08198608 -11.27520233 32.25662354 -10.99609375 31.40625 C-10.71274673 30.5335144 -10.42939972 29.66077881 -10.13746643 28.76159668 C-9.54361479 26.93578403 -8.94771937 25.11063494 -8.34985352 23.28613281 C-7.43147165 20.48159069 -6.52096699 17.67457604 -5.61132812 14.8671875 C-5.03171148 13.08839123 -4.4516496 11.30973996 -3.87109375 9.53125 C-3.46170815 8.26891541 -3.46170815 8.26891541 -3.04405212 6.9810791 C-1.11540072 1.11540072 -1.11540072 1.11540072 0 0 Z " fill="#ECEDEF" transform="translate(397,179)"/>
<path d="M0 0 C2 1 2 1 2.80996704 2.84640503 C3.07199921 3.65232086 3.33403137 4.45823669 3.60400391 5.28857422 C4.05424423 6.65536819 4.05424423 6.65536819 4.51358032 8.04977417 C4.9902565 9.53720627 4.9902565 9.53720627 5.4765625 11.0546875 C5.80667328 12.0671756 6.13678406 13.0796637 6.47689819 14.12283325 C7.17472738 16.26870809 7.86884587 18.41579257 8.55957031 20.56396484 C9.61916463 23.85686542 10.6914176 27.14543503 11.765625 30.43359375 C12.44086105 32.51537965 13.11536468 34.59740329 13.7890625 36.6796875 C14.11089508 37.66726044 14.43272766 38.65483337 14.76431274 39.67233276 C15.05816864 40.58983307 15.35202454 41.50733337 15.65478516 42.45263672 C16.04544662 43.66389725 16.04544662 43.66389725 16.44400024 44.89962769 C17 47 17 47 17 50 C34.49 50 51.98 50 70 50 C64.37641723 55.62358277 64.37641723 55.62358277 61.20703125 57.875 C60.50239746 58.37942627 59.79776367 58.88385254 59.07177734 59.40356445 C57.95343506 60.19380005 57.95343506 60.19380005 56.8125 61 C55.21734728 62.13918201 53.62229847 63.27850953 52.02734375 64.41796875 C51.2060498 65.00239746 50.38475586 65.58682617 49.53857422 66.18896484 C45.30320429 69.21050496 41.09019065 72.26290708 36.875 75.3125 C35.3516652 76.4129026 33.82823732 77.51317638 32.3046875 78.61328125 C31.66515137 79.07516846 31.02561523 79.53705566 30.36669922 80.01293945 C29.91568848 80.33866943 29.46467773 80.66439941 29 81 C29.55054716 86.74917615 30.70505458 91.73288346 32.65234375 97.15625 C33.04263512 98.27610291 33.04263512 98.27610291 33.44081116 99.4185791 C34.26557682 101.78174929 35.10081179 104.14102758 35.9375 106.5 C36.76904774 108.85947741 37.59821229 111.21973842 38.42347717 113.5814209 C38.93480785 115.04319385 39.44987964 116.50366595 39.96946716 117.96252441 C41.59600254 122.59279598 42.86969301 127.22350911 44 132 C40.31171161 130.33403399 37.13487442 128.05429641 33.875 125.6875 C32.97769165 125.04131714 32.97769165 125.04131714 32.06225586 124.38208008 C30.03942213 122.92424918 28.01971249 121.46215154 26 120 C24.44156686 118.87477752 22.8829679 117.74978468 21.32421875 116.625 C18.25783635 114.41191802 15.1928957 112.19686211 12.12890625 109.98046875 C8.4292318 107.30622405 4.71733114 104.64963919 1 102 C-4.97658119 105.92919476 -10.84037819 109.98138053 -16.625 114.1875 C-17.39118652 114.74268311 -18.15737305 115.29786621 -18.94677734 115.86987305 C-26.31904866 121.2176228 -33.66488212 126.60143979 -41 132 C-42.07986369 128.74683602 -41.91828641 126.89993647 -40.8125 123.67797852 C-40.38710937 122.41130089 -40.38710937 122.41130089 -39.953125 121.11903381 C-39.63859375 120.21479172 -39.3240625 119.31054962 -39 118.37890625 C-38.35415208 116.45508302 -37.70831921 114.53125474 -37.0625 112.60742188 C-36.03186827 109.58018704 -34.99721188 106.55436034 -33.9609375 103.52905273 C-32.96409113 100.60723705 -31.98161015 97.68086895 -31 94.75390625 C-30.52820313 93.40057945 -30.52820313 93.40057945 -30.046875 92.01991272 C-29.76328125 91.17230881 -29.4796875 90.3247049 -29.1875 89.45141602 C-28.93355469 88.71069351 -28.67960937 87.96997101 -28.41796875 87.20680237 C-27.90789504 84.5137018 -28.24637306 82.62117987 -29 80 C-30.45331456 78.36640802 -30.45331456 78.36640802 -32.40234375 77.125 C-33.1195459 76.620896 -33.83674805 76.11679199 -34.57568359 75.59741211 C-35.35508301 75.07026611 -36.13448242 74.54312012 -36.9375 74 C-38.57441391 72.85574789 -40.21112663 71.71120791 -41.84765625 70.56640625 C-42.69473145 69.98133301 -43.54180664 69.39625977 -44.41455078 68.79345703 C-48.60205845 65.88869486 -52.73880283 62.9146412 -56.875 59.9375 C-57.629021 59.40189453 -58.38304199 58.86628906 -59.15991211 58.31445312 C-59.86768799 57.80720703 -60.57546387 57.29996094 -61.3046875 56.77734375 C-61.92327637 56.33640381 -62.54186523 55.89546387 -63.17919922 55.44116211 C-65.26177745 53.79280339 -67.12194003 51.87805997 -69 50 C-51.51 50 -34.02 50 -16 50 C-14.515 44.555 -14.515 44.555 -13 39 C-12.24053009 36.78038794 -11.45297863 34.5699769 -10.625 32.375 C-8.41391171 26.32780672 -6.53080523 20.23420945 -4.78759766 14.03662109 C-3.42738132 9.25110129 -1.79601775 4.64057764 0 0 Z " fill="#ECEDEF" transform="translate(213,179)"/>
<path d="M0 0 C2.20345989 2.20345989 2.65396988 3.49312437 3.60400391 6.41796875 C4.05424423 7.78949097 4.05424423 7.78949097 4.51358032 9.1887207 C4.9902565 10.67311646 4.9902565 10.67311646 5.4765625 12.1875 C5.80667328 13.20094482 6.13678406 14.21438965 6.47689819 15.25854492 C7.17400329 17.40287412 7.86814841 19.54816749 8.55957031 21.69433594 C9.62133124 24.98861708 10.69269162 28.27965535 11.765625 31.5703125 C12.4406728 33.65085726 13.11517065 35.73158054 13.7890625 37.8125 C14.27181137 39.29689575 14.27181137 39.29689575 14.76431274 40.8112793 C15.05816864 41.72562744 15.35202454 42.63997559 15.65478516 43.58203125 C15.91522614 44.38874268 16.17566711 45.1954541 16.44400024 46.02661133 C17 48 17 48 17 50 C34.49 50 51.98 50 70 50 C66.75389674 53.24610326 63.601085 55.84270956 59.875 58.4375 C58.6337391 59.31327014 57.39287447 60.18960211 56.15234375 61.06640625 C55.48831543 61.53449707 54.82428711 62.00258789 54.14013672 62.48486328 C50.2225625 65.25835924 46.33025602 68.06683046 42.4375 70.875 C41.67614746 71.42212646 40.91479492 71.96925293 40.13037109 72.53295898 C37.0520773 74.75290213 34.0323758 76.9734196 31.09765625 79.3828125 C29 81 29 81 27 81 C27.4125 81.886875 27.825 82.77375 28.25 83.6875 C29.68495829 87.02864672 30.76824721 90.40735834 31.80859375 93.890625 C33.25212367 98.63816795 34.77663437 103.34416826 36.39453125 108.03515625 C36.99104492 109.77249023 36.99104492 109.77249023 37.59960938 111.54492188 C38.42111575 113.92742266 39.24945175 116.30757757 40.08398438 118.68554688 C40.47521484 119.83216797 40.86644531 120.97878906 41.26953125 122.16015625 C41.62635986 123.18761963 41.98318848 124.21508301 42.35083008 125.27368164 C43.00656721 128.02758031 42.97317936 129.38362819 42 132 C41.00742187 131.24976563 40.01484375 130.49953125 38.9921875 129.7265625 C31.16267038 123.82313182 23.28304377 118.00901927 15.28515625 112.3359375 C10.49103371 108.93530658 5.74594751 105.46744737 1 102 C-1.77075248 103.3134881 -4.21979592 104.77552964 -6.6953125 106.58203125 C-7.40284668 107.09596436 -8.11038086 107.60989746 -8.83935547 108.1394043 C-9.97074951 108.96758667 -9.97074951 108.96758667 -11.125 109.8125 C-11.90891113 110.38202393 -12.69282227 110.95154785 -13.50048828 111.53833008 C-16.00237206 113.35609333 -18.50150623 115.17758057 -21 117 C-24.28923799 119.39919399 -27.58123447 121.79452687 -30.875 124.1875 C-32.00639404 125.01568237 -32.00639404 125.01568237 -33.16064453 125.8605957 C-33.86817871 126.37452881 -34.57571289 126.88846191 -35.3046875 127.41796875 C-36.2325708 128.09508911 -36.2325708 128.09508911 -37.17919922 128.78588867 C-39.05522971 130.03682722 -40.96424639 131.03494153 -43 132 C-41.30114236 125.22642274 -39.25138427 118.59504734 -37.046875 111.97265625 C-36.78096558 111.17088959 -36.51505615 110.36912292 -36.24108887 109.5430603 C-35.12928216 106.19509074 -34.01520958 102.84800336 -32.88671875 99.50561523 C-32.05568724 97.03932054 -31.23777728 94.56899027 -30.421875 92.09765625 C-30.16363953 91.34347916 -29.90540405 90.58930206 -29.63934326 89.81227112 C-28.03045073 84.90004879 -28.03045073 84.90004879 -29 80 C-30.95071251 78.3628487 -32.82964329 76.96773781 -34.9375 75.5625 C-36.21027317 74.68451756 -37.48237462 73.80556079 -38.75390625 72.92578125 C-39.43727051 72.45736816 -40.12063477 71.98895508 -40.82470703 71.50634766 C-44.71601061 68.81169636 -48.54193381 66.02654915 -52.375 63.25 C-53.11097412 62.71963135 -53.84694824 62.1892627 -54.60522461 61.64282227 C-56.74132575 60.10129854 -58.87222403 58.55299249 -61 57 C-62.14710449 56.1637207 -62.14710449 56.1637207 -63.31738281 55.31054688 C-64.05053711 54.76978516 -64.78369141 54.22902344 -65.5390625 53.671875 C-66.53607178 52.93855957 -66.53607178 52.93855957 -67.55322266 52.19042969 C-68.03065918 51.79758789 -68.5080957 51.40474609 -69 51 C-69 50.67 -69 50.34 -69 50 C-51.51 50 -34.02 50 -16 50 C-15.34 47.03 -14.68 44.06 -14 41 C-13.56050149 39.4324292 -13.09869307 37.87055261 -12.59545898 36.32226562 C-12.33856796 35.52534302 -12.08167694 34.72842041 -11.81700134 33.90734863 C-11.54610184 33.08198608 -11.27520233 32.25662354 -10.99609375 31.40625 C-10.71274673 30.5335144 -10.42939972 29.66077881 -10.13746643 28.76159668 C-9.54361479 26.93578403 -8.94771937 25.11063494 -8.34985352 23.28613281 C-7.43147165 20.48159069 -6.52096699 17.67457604 -5.61132812 14.8671875 C-5.03171148 13.08839123 -4.4516496 11.30973996 -3.87109375 9.53125 C-3.46170815 8.26891541 -3.46170815 8.26891541 -3.04405212 6.9810791 C-1.11540072 1.11540072 -1.11540072 1.11540072 0 0 Z " fill="#EDEEEF" transform="translate(397,30)"/>
<path d="M0 0 C2.09005858 2.09005858 2.5301794 3.11145717 3.42041016 5.85131836 C3.68052887 6.6423143 3.94064758 7.43331024 4.20864868 8.24827576 C4.48268524 9.10349319 4.7567218 9.95871063 5.0390625 10.83984375 C5.32478119 11.71774063 5.61049988 12.59563751 5.90487671 13.50013733 C6.50788619 15.35778159 7.10787445 17.21640887 7.70507812 19.07592773 C8.62098073 21.92499739 9.54801465 24.7702642 10.4765625 27.61523438 C11.06056399 29.41905465 11.64391909 31.22308435 12.2265625 33.02734375 C12.50464752 33.88053696 12.78273254 34.73373016 13.06924438 35.61277771 C13.44996597 36.80399986 13.44996597 36.80399986 13.83837891 38.01928711 C14.0632901 38.71718857 14.28820129 39.41509003 14.51992798 40.13414001 C15 42 15 42 15 45 C32.82 45 50.64 45 69 45 C66.35897907 47.64102093 64.25324594 49.67556459 61.3046875 51.77734375 C60.24326538 52.53869629 60.24326538 52.53869629 59.16040039 53.31542969 C58.40621826 53.85071289 57.65203613 54.38599609 56.875 54.9375 C55.26674565 56.08698578 53.65867848 57.23673348 52.05078125 58.38671875 C51.22271973 58.97759277 50.3946582 59.5684668 49.54150391 60.17724609 C46.99022768 62.00700866 44.45229399 63.85387626 41.91796875 65.70703125 C41.10408691 66.3007251 40.29020508 66.89441895 39.45166016 67.50610352 C37.88300498 68.65109676 36.31620853 69.7986417 34.75146484 70.94897461 C34.04070801 71.46596924 33.32995117 71.98296387 32.59765625 72.515625 C31.97383057 72.97227539 31.35000488 73.42892578 30.70727539 73.89941406 C29 75 29 75 26 76 C26.37809814 77.11858398 26.75619629 78.23716797 27.14575195 79.38964844 C28.56503475 83.59265345 29.9780922 87.79773051 31.3894043 92.00341797 C31.99776874 93.81354757 32.60775645 95.62313255 33.21948242 97.43212891 C36.52465944 107.20983164 39.77839104 116.90809982 42 127 C39.22924752 125.6865119 36.78020408 124.22447036 34.3046875 122.41796875 C33.59723389 121.90395508 32.88978027 121.38994141 32.16088867 120.86035156 C31.40654541 120.30831055 30.65220215 119.75626953 29.875 119.1875 C29.09036377 118.61870117 28.30572754 118.04990234 27.49731445 117.46386719 C23.31056617 114.42698581 19.14189537 111.36718515 14.98828125 108.28515625 C14.18342285 107.69259033 13.37856445 107.10002441 12.54931641 106.48950195 C11.00323149 105.35079459 9.46230286 104.20504467 7.92724609 103.05151367 C2.95018804 99.09457072 2.95018804 99.09457072 -3 98 C-5.85726653 99.59100934 -8.33761219 101.57137585 -10.875 103.625 C-12.24685094 104.70121577 -13.61924254 105.77674273 -14.9921875 106.8515625 C-15.65573242 107.37782227 -16.31927734 107.90408203 -17.00292969 108.44628906 C-19.93595179 110.72816591 -22.95926457 112.86433987 -26 115 C-26.66 114.67 -27.32 114.34 -28 114 C-21.82585522 75.01950717 -13.71875994 37.09799714 0 0 Z " fill="#EDEEEF" transform="translate(31,333)"/>
<path d="M0 0 C2.23032251 0.06035792 4.46080489 0.11508135 6.69140625 0.1640625 C12.08950023 0.29463306 17.48147354 0.49398093 22.875 0.75 C19.33869318 4.35298741 15.83183433 7.35837365 11.6875 10.25 C10.45659013 11.11525822 9.2261461 11.98117941 7.99609375 12.84765625 C7.33851074 13.30930176 6.68092773 13.77094727 6.00341797 14.24658203 C2.0635545 17.02952298 -1.84148554 19.86078883 -5.75 22.6875 C-6.51981201 23.24308594 -7.28962402 23.79867187 -8.08276367 24.37109375 C-11.45108926 26.8042496 -14.80591256 29.24986631 -18.125 31.75 C-16.17586375 41.33325321 -13.22345064 50.53143873 -10.0859375 59.78125 C-9.72322754 60.85431396 -9.36051758 61.92737793 -8.98681641 63.03295898 C-8.25266574 65.19849386 -7.51286329 67.36212191 -6.76708984 69.52368164 C-6.42629395 70.52778076 -6.08549805 71.53187988 -5.734375 72.56640625 C-5.42467773 73.46818604 -5.11498047 74.36996582 -4.79589844 75.29907227 C-4.125 77.75 -4.125 77.75 -4.125 81.75 C-8.45126551 80.28938926 -11.50378019 78.08620545 -15.0625 75.25 C-21.92437678 69.85125211 -28.98394395 64.77108829 -36.125 59.75 C-37.14980469 59.02941406 -38.17460937 58.30882812 -39.23046875 57.56640625 C-41.52608158 55.95721079 -43.82384914 54.35126166 -46.125 52.75 C-52.67221286 56.68942469 -58.85142819 60.95261808 -64.9375 65.5625 C-65.94816528 66.32723633 -65.94816528 66.32723633 -66.97924805 67.10742188 C-67.99498901 67.87602539 -67.99498901 67.87602539 -69.03125 68.66015625 C-72.97423652 71.64274391 -76.93799105 74.5936163 -80.9375 77.5 C-81.51798096 77.93030518 -82.09846191 78.36061035 -82.6965332 78.80395508 C-86.77834394 81.75 -86.77834394 81.75 -90.125 81.75 C-89.76672119 80.66058105 -89.40844238 79.57116211 -89.03930664 78.44873047 C-87.70613842 74.39107973 -86.37871284 70.3315694 -85.05297852 66.27148438 C-84.47933919 64.51739403 -83.90416168 62.76380591 -83.32739258 61.01074219 C-82.4967213 58.4850428 -81.67167138 55.95756514 -80.84765625 53.4296875 C-80.59033218 52.65132538 -80.33300812 51.87296326 -80.06788635 51.0710144 C-79.00735839 47.80202596 -78.12811717 44.77044575 -77.60839844 41.36157227 C-76.89016636 37.48130533 -74.357197 35.98987117 -71.3125 33.8125 C-70.69793945 33.35286865 -70.08337891 32.8932373 -69.45019531 32.41967773 C-68.08878664 31.40330881 -66.72211409 30.39396395 -65.35107422 29.390625 C-63.00572389 27.66209306 -60.6908753 25.89789922 -58.37890625 24.125 C-56.71143271 22.85351697 -55.04346739 21.5826786 -53.375 20.3125 C-52.62758545 19.74088135 -51.8801709 19.1692627 -51.11010742 18.58032227 C-49.47791408 17.35231051 -47.82671422 16.14932713 -46.16162109 14.96630859 C-43.80960375 13.24966497 -41.5955178 11.48680084 -39.35791016 9.63134766 C-26.64711903 -0.41143198 -15.76750424 -0.75117099 0 0 Z " fill="#EDEEEF" transform="translate(260.125,79.25)"/>
<path d="M0 0 C3.07018594 3.49992174 4.34607726 7.39832729 5.734375 11.7578125 C5.97665833 12.50207489 6.21894165 13.24633728 6.46856689 14.01315308 C6.97648518 15.5802999 7.48054139 17.14870308 7.98095703 18.71826172 C8.75070327 21.1272009 9.5365849 23.53045173 10.32421875 25.93359375 C10.81607749 27.45801963 11.30699604 28.98274926 11.796875 30.5078125 C12.03323669 31.22865021 12.26959839 31.94948792 12.51312256 32.69216919 C14.11501192 37.76997616 14.11501192 37.76997616 13 40 C12.48614746 39.62713867 11.97229492 39.25427734 11.44287109 38.87011719 C9.08776811 37.16223022 6.73139539 35.45610333 4.375 33.75 C3.16263672 32.87021484 3.16263672 32.87021484 1.92578125 31.97265625 C-2.32964227 28.89352866 -6.6033482 25.87418661 -11 23 C-9.92170366 20.47690771 -8.83754295 17.95660459 -7.75 15.4375 C-7.44964844 14.73302734 -7.14929687 14.02855469 -6.83984375 13.30273438 C-4.83416111 8.67259467 -2.57714586 4.33895575 0 0 Z " fill="#E9EBEE" transform="translate(59,271)"/>
<path d="M0 0 C0.33 0.66 0.66 1.32 1 2 C4.04581269 2.46954261 4.04581269 2.46954261 7.5625 2.625 C8.76003906 2.69976562 9.95757812 2.77453125 11.19140625 2.8515625 C12.11824219 2.90054688 13.04507813 2.94953125 14 3 C10.34370093 7.03453691 6.01587041 9.92713638 1.5625 13 C-3.06859354 16.21195157 -7.65284747 19.40474065 -12 23 C-12.66 22.67 -13.32 22.34 -14 22 C-12.41780528 19.45761841 -10.83428153 16.91608077 -9.25 14.375 C-8.58484375 13.30572266 -8.58484375 13.30572266 -7.90625 12.21484375 C-5.33665734 8.09593786 -2.7163267 4.02371758 0 0 Z " fill="#E4E8ED" transform="translate(86,226)"/>
</svg>
