<svg xmlns="http://www.w3.org/2000/svg" width="500" height="500"><path fill="#E22816" d="m234.7-.203 3.367-.017q3.524-.015 7.048-.02c3.517-.01 7.034-.04 10.551-.073C274.159-.4 292.192.992 310.125 5.75l2.999.776c22.704 6.033 43.58 15.425 64.19 26.57q1.83.978 3.686 1.904v2l1.621.254c3.239 1.016 5.646 2.768 8.442 4.684l3.16 2.152L397 46l3 2v2l5 2v2l2.125.688c3.616 1.65 5.963 3.603 8.875 6.312v2h2v2l1.77.787c2.386 1.298 3.982 2.706 5.902 4.62l2.012 2.003 2.066 2.09 2.113 2.09 1.996 2.004 1.828 1.834C437 82 437 82 437 84h2a118 118 0 0 1 5 6.125l1.487 1.927A875 875 0 0 1 450 98l1.3 1.715c23.557 31.27 38.523 67.038 46.012 105.348l.484 2.446c2.37 12.857 2.39 25.827 2.39 38.855.001 2.801.02 5.602.039 8.404.05 15.726-1.256 30.997-4.413 46.42l-.647 3.174c-5.19 24.504-14.19 46.73-26.109 68.668-1.409 2.629-2.741 5.293-4.056 7.97h-2l-.719 2.043c-1.591 3.673-3.616 6.912-5.781 10.27l-1.223 1.955c-1.035 1.615-2.15 3.179-3.277 4.732h-2l-2 5h-2l-.687 2.125c-1.651 3.616-3.604 5.963-6.313 8.875h-2v2h-2l-.814 1.798c-1.189 2.207-2.393 3.667-4.155 5.436l-1.73 1.739-1.801 1.777-1.8 1.824-1.731 1.723-1.58 1.573C420 435 420 435 418 435v2h-2v2c-1.898 1.727-1.898 1.727-4.375 3.625l-2.46 1.914C407 446 407 446 405 446v2l-5 2v2c-1.529 1.237-1.529 1.237-3.648 2.602l-2.297 1.484-2.43 1.539-2.406 1.563C383.268 463 383.268 463 381 463v2c-27.397 15.212-55.318 26.32-86.125 32.313l-2.472.483c-13.027 2.392-26.05 2.362-39.247 2.334-3.083-.005-6.165 0-9.248.007-14.82.007-28.976-.61-43.533-3.637l-3.77-.783c-24.713-5.38-47.365-14.711-69.554-26.629-2.66-1.411-5.35-2.759-8.051-4.088v-2l-2.168-.797C109.198 458.96 101.106 453.651 95 448v-2l-2.125-.687c-3.616-1.651-5.963-3.604-8.875-6.313v-2h-2v-2l-1.798-.814c-2.207-1.189-3.667-2.393-5.436-4.155l-1.739-1.73-1.777-1.801-1.824-1.8-1.723-1.731-1.573-1.58C65 420 65 420 65 418h-2v-2h-2c-1.727-1.898-1.727-1.898-3.625-4.375l-1.914-2.46C54 407 54 407 54 405h-2l-2-5h-2a142 142 0 0 1-5.25-7.312l-1.511-2.23C37.452 384.81 34.109 379.05 31 373q-1.071-2-2.148-3.996A935 935 0 0 1 22 356l-1.629-3.102C11.808 335.585 6.68 315.903 3 297l-.496-2.483c-2.846-15.085-2.79-30.284-2.816-45.58l-.012-3.089C-.346 234.04.06 222.668 2 211q.325-2.331.64-4.664C4.396 194.575 7.499 183.35 11 172l.649-2.162c2.45-8.141 5.522-15.613 9.456-23.147a179 179 0 0 0 3.946-8.101l1.047-2.28a628 628 0 0 0 1.974-4.362c1.905-4.146 4.084-7.75 6.808-11.41 1.341-1.842 2.398-3.759 3.432-5.788 2.59-4.806 5.75-9.1 9.016-13.465C49.01 99.121 49.01 99.121 50 97h2l.781-1.703c1.36-2.564 2.947-4.75 4.719-7.047l1.844-2.422L61 84h2l.813-1.766c1.202-2.262 2.525-4.04 4.187-5.984l1.563-1.86C71 73 71 73 73 73l1-3c1.777-1.824 1.777-1.824 3.938-3.687l2.152-1.887C82 63 82 63 84 63l1-3c2.215-2.043 2.215-2.043 4.938-4.187l2.714-2.168C95 52 95 52 97 52v-2a109 109 0 0 1 6.125-4.375l1.727-1.172a461 461 0 0 1 3.446-2.311 251 251 0 0 0 4.944-3.431C116 37 116 37 119 37v-2c12.138-6.517 24.271-12.722 37-18l2.504-1.102c8.172-3.496 16.81-5.759 25.33-8.243a107 107 0 0 0 5.1-1.706c4.552-1.409 9.19-2.182 13.879-3.011l2.869-.526c9.727-1.747 19.13-2.575 29.017-2.615"/><path fill="#030202" d="m234.7-.203 3.367-.017q3.524-.015 7.048-.02c3.517-.01 7.034-.04 10.551-.073C274.159-.4 292.192.992 310.125 5.75l2.999.776c22.704 6.033 43.58 15.425 64.19 26.57q1.83.978 3.686 1.904v2l1.621.254c3.239 1.016 5.646 2.768 8.442 4.684l3.16 2.152L397 46l3 2v2l5 2v2l2.125.688c3.616 1.65 5.963 3.603 8.875 6.312v2h2v2l1.77.787c2.386 1.298 3.982 2.706 5.902 4.62l2.012 2.003 2.066 2.09 2.113 2.09 1.996 2.004 1.828 1.834C437 82 437 82 437 84h2a118 118 0 0 1 5 6.125l1.487 1.927A875 875 0 0 1 450 98l1.3 1.715C485 144.45 485 144.45 485 167H15c1.12-11.209 1.12-11.209 4.063-16.562q.954-1.785 1.902-3.57l1.007-1.88c2.204-4.262 4.14-8.66 6.099-13.039 1.906-4.146 4.085-7.75 6.809-11.41 1.341-1.843 2.398-3.76 3.432-5.789 2.59-4.806 5.75-9.1 9.016-13.465C49.01 99.121 49.01 99.121 50 97h2l.781-1.703c1.36-2.564 2.947-4.75 4.719-7.047l1.844-2.422L61 84h2l.813-1.766c1.202-2.262 2.525-4.04 4.187-5.984l1.563-1.86C71 73 71 73 73 73l1-3c1.777-1.824 1.777-1.824 3.938-3.687l2.152-1.887C82 63 82 63 84 63l1-3c2.215-2.043 2.215-2.043 4.938-4.187l2.714-2.168C95 52 95 52 97 52v-2a109 109 0 0 1 6.125-4.375l1.727-1.172a461 461 0 0 1 3.446-2.311 251 251 0 0 0 4.944-3.431C116 37 116 37 119 37v-2c12.138-6.517 24.271-12.722 37-18l2.504-1.102c8.172-3.496 16.81-5.759 25.33-8.243a107 107 0 0 0 5.1-1.706c4.552-1.409 9.19-2.182 13.879-3.011l2.869-.526c9.727-1.747 19.13-2.575 29.017-2.615"/><path fill="#FBCC00" d="m13 331 1 2h472c-.833 5-2.014 9.082-3.937 13.688l-.912 2.202c-3.522 8.295-7.785 16.192-12.079 24.108-1.413 2.64-2.752 5.314-4.072 8.002h-2l-.719 2.043c-1.591 3.673-3.616 6.912-5.781 10.27l-1.223 1.955c-1.035 1.615-2.15 3.179-3.277 4.732h-2l-2 5h-2l-.687 2.125c-1.651 3.616-3.604 5.963-6.313 8.875h-2v2h-2l-.814 1.798c-1.189 2.207-2.393 3.667-4.155 5.436l-1.73 1.739-1.801 1.777-1.8 1.824-1.731 1.723-1.58 1.573C420 435 420 435 418 435v2h-2v2c-1.898 1.727-1.898 1.727-4.375 3.625l-2.46 1.914C407 446 407 446 405 446v2l-5 2v2c-1.529 1.237-1.529 1.237-3.648 2.602l-2.297 1.484-2.43 1.539-2.406 1.563C383.268 463 383.268 463 381 463v2c-27.397 15.212-55.318 26.32-86.125 32.313l-2.472.483c-13.027 2.392-26.05 2.362-39.247 2.334q-4.624-.005-9.248.007c-14.82.007-28.976-.61-43.533-3.637l-3.77-.783c-24.713-5.38-47.365-14.711-69.554-26.629-2.66-1.411-5.35-2.759-8.051-4.088v-2l-2.168-.797C109.198 458.96 101.106 453.651 95 448v-2l-2.125-.687c-3.616-1.651-5.963-3.604-8.875-6.313v-2h-2v-2l-1.798-.814c-2.207-1.189-3.667-2.393-5.436-4.155l-1.739-1.73-1.777-1.801-1.824-1.8-3.296-3.311C65 420 65 420 65 418h-2v-2h-2c-1.727-1.898-1.727-1.898-3.625-4.375l-1.914-2.46C54 407 54 407 54 405h-2l-2-5h-2a142 142 0 0 1-5.25-7.312l-1.511-2.23C37.452 384.81 34.109 379.05 31 373q-1.071-2-2.148-3.996C13 339.556 13 339.556 13 331"/><path fill="#FEAE1B" d="m13 331 1 2h472c-.832 4.99-2.028 8.853-4.062 13.375l-.854 1.941A803 803 0 0 1 479 353c-1-3-1-3-.062-6.187 1.42-4.438 1.42-4.438 1.062-11.813l-460 1 1 3-.621 2.242c-.526 3.83.937 6.513 2.558 9.883C26 357.657 26 357.657 26 361l1.953.71C30 363 30 363 30.61 365.165l.141 2.461.172 2.477L31 372c-2.151-2.724-3.807-5.398-5.305-8.527l-1.262-2.634-1.308-2.776-1.343-2.84C13 336.475 13 336.475 13 331"/><path fill="#BF352B" d="M15 161c1.125 3.75 1.125 3.75 0 6h470l1-4a479 479 0 0 1 1.5 4.25l.844 2.39C489 172 489 172 489 176h-2v-3h-2v-5H15l-1 11c-2.5 3.563-2.5 3.563-3.871 5.21-1.8 2.854-1.654 5.708-1.816 9.013C7.733 198.37 5.787 203.163 4 208H3c.608-6.484 1.666-12.67 3.188-19l.65-2.733C8.97 177.622 11.83 169.312 15 161"/><path fill="#BF362C" d="M485 163c2.31 4.457 4 7.904 4 13h-2v-3h-2v-5H256v-1h229z"/><path fill="#F3DC64" d="M342 483c-12.358 8.239-37.025 15.222-52 14l-2-2h10v-2l1.723-.113c5.324-.454 9.395-1.584 14.277-3.887 4.2-1.629 7.492-2.215 12-2v-2c5.38-1.19 10.453-2.292 16-2"/><path fill="#D75A4F" d="M499 261h1c.453 14.057-1.805 27.75-4.5 41.5l-.647 3.348-.634 3.12-.565 2.796C493 314 493 314 491 316c-.322-6.386-.085-11.56 2.203-17.54 1.314-4.056 1.787-8.23 2.367-12.444a76 76 0 0 1 .953-5.426c.75-4.078.87-8.19 1.082-12.326.292-5.059.292-5.059 1.395-7.264"/><path fill="#CE5E55" d="M15 161c1.125 3.75 1.125 3.75 0 6h6v1h-6l-.043 2.16c-.437 8.782-.437 8.782-3.457 12.403-2.887 3.47-2.97 6.245-3.187 10.66C7.733 198.37 5.787 203.163 4 208H3c.608-6.484 1.666-12.67 3.188-19l.65-2.733C8.97 177.622 11.83 169.312 15 161"/><path fill="#F4E068" d="m13 331 1 2h2v2l1.938.313L20 336c1 3 1 3 .379 5.242-.526 3.83.937 6.513 2.558 9.883C26 357.657 26 357.657 26 361l1.953.71C30 363 30 363 30.61 365.165l.141 2.461.172 2.477L31 372c-2.151-2.724-3.807-5.398-5.305-8.527l-1.262-2.634-1.308-2.776-1.343-2.84C13 336.475 13 336.475 13 331"/><path fill="#F2DA5D" d="M97 448c4.16.549 6.597 1.873 9.938 4.375 3.577 2.609 7.078 4.681 11.062 6.625 1.875 1.563 1.875 1.563 3 3v2l2 .188c4.122 1.116 7.658 3.15 11 5.812v2c-5.48-1.545-10.114-4.155-15-7v-2l-2.16-.793c-7.257-3.085-14.043-7.88-19.84-13.207z"/><path fill="#D9655A" d="M1 259c2.363 2.363 2.271 2.924 2.379 6.14l.103 2.497.08 2.613c.2 6.46.2 6.46.961 12.867.595 3.597.585 7.125.54 10.758l-.014 2.086Q5.029 298.48 5 301c-1.743-3.082-2.407-5.716-2.852-9.219l-.39-3.078-.383-3.203-.406-3.11C-1.336 263.673-1.336 263.673 1 259"/><path fill="#F3DA5A" d="M422 427h5a367 367 0 0 1-2.812 3.438l-1.583 1.933C421 434 421 434 418 435v2h-2v2c-1.898 1.727-1.898 1.727-4.375 3.625l-2.46 1.914C407 446 407 446 405 446v2l-5 2 2-5h4v-2h3v-4h3v-3h4v-2l3-1c2.41-2.635 2.41-2.635 3-6"/><path fill="#F4DA59" d="m443 406 3 1a622 622 0 0 1-3.375 4.5l-1.898 2.531L439 416h-2v2h-2l-.625 1.688c-1.925 3.237-4.414 4.994-7.375 7.312-.125-2.375-.125-2.375 0-5 2-2 2-2 4.063-2.437L433 419l1-3h2v-4h3v-3h2v-2z"/><path fill="#F3D43F" d="M457 384h2c.738 1.61.738 1.61 1 4-1.582 3.016-1.582 3.016-3.812 6.25l-2.208 3.266L452 400h-2l-2 5-2-1 1-4h2v-3l2-1 .375-2.312c.77-3.31 2.188-4.403 4.625-6.688z"/><path fill="#DA5C4F" d="M497 211c2.671 4.675 2.528 9.226 2.75 14.5l.168 2.879.129 2.777.12 2.526c-.184 2.557-.878 4.124-2.167 6.318-1-1-1-1-1.114-3.684l.016-3.539.01-3.818.026-4.022q.008-2.016.013-4.033.018-4.952.049-9.904"/><path fill="#F4DA54" d="M486 334c-.666 4.41-2.266 8.266-4.062 12.313l-.854 1.955Q480.047 350.636 479 353c-1-3-1-3-.062-6.187 1.18-4.237 1.215-7.448 1.062-11.813 2.076-.553 3.844-1 6-1"/><path fill="#F3D544" d="M342 483c-5.807 3.871-12.045 5.181-18.922 5.746-2.831.346-5.388 1.335-8.078 2.254l-2-1c4.622-2.219 7.768-3.383 13-3v-2c5.38-1.19 10.453-2.292 16-2"/><path fill="#F5E26E" d="M203 496q3.188-.04 6.375-.062l3.586-.036C216 496 216 496 218 497c1.445.218 2.897.39 4.352.535l2.578.264 2.695.264 2.719.275q3.327.336 6.656.662v1c-11.511.234-22.72-.672-34-3z"/><path fill="#F4DA5A" d="M170 487h11v2h5l1 3 2 1c-4.451-.643-8.589-1.707-12.875-3.062l-3.492-1.098L170 488z"/><path fill="#F3DB5F" d="M361 475a1222 1222 0 0 1-6.687 3.438l-1.897.986c-3.453 1.754-6.568 3.054-10.416 3.576 1-3 1-3 3.363-4.352l2.95-1.273c.965-.425 1.93-.85 2.925-1.29 5.974-2.348 5.974-2.348 9.762-1.085"/><path fill="#E28E84" d="M8 182c2.63 8.834-.94 17.716-4 26H3c.647-8.89 2.87-17.372 5-26"/><path fill="#F3DA58" d="M378 466c-10.374 6.52-10.374 6.52-16 8l1-4h5l1-4c6.75-1.125 6.75-1.125 9 0"/><path fill="#F4DA57" d="M394 450h6v2a103 103 0 0 1-6 4.125l-1.734 1.129A710 710 0 0 1 388 460l-2-1 1-3h3v-2l4-2z"/><path fill="#F4D745" d="M59 412h5l1 5h3l1 6c-2-1.375-2-1.375-4-3v-2h-2v-2h-2z"/><path fill="#F2DE66" d="M31 372c1.86.223 1.86.223 4 1 1.266 1.996 1.266 1.996 2.25 4.438l1.016 2.433C39 382 39 382 39 384l2 1-1 3a2262 2262 0 0 1-3.937-6.312l-1.131-1.803c-1.62-2.612-2.956-4.957-3.932-7.885"/><path fill="#F2DE6C" d="M138 474c6.79.37 11.269 2.405 17 6v2c-6.147-1.47-11.422-4.06-17-7z"/><path fill="#E16257" d="m9 318 2 3h3c1.125 5.625 1.125 5.625 0 9h-2a345 345 0 0 1-1.5-3.75l-.844-2.11C9 322 9 322 9 318"/><path fill="#F1DC5F" d="M75 429h4l1 3 3 1a141 141 0 0 1 5 5l-1 3-3-2v-2h-2v-2l-1.812-.75c-2.474-1.414-3.622-2.9-5.188-5.25"/><path fill="#F2CC1D" d="M218 497q4.938-.042 9.875-.062l2.84-.026 2.715-.01 2.507-.016C238 497 238 497 240 498v2l-22-2z"/><path fill="#F5D045" d="m13 331 1 2h2v2l1.938.313L20 336l1 3c-2 1-2 1-4 .875-2-.875-2-.875-3.25-3.25C13 334 13 334 13 331"/><path fill="#D87060" d="m489 317 2 1c-1.927 10.558-1.927 10.558-4 15h-1c.48-5.569 1.3-10.67 3-16"/><path fill="#E1837B" d="M5 301h1v5l3 1v11c-2.842-5.684-4.311-10.622-4-17"/><path fill="#CE6961" d="M485 163c2.31 4.457 4 7.904 4 13h-2v-3h-2v-5l-3-1h3z"/><path fill="#747474" d="m69 76 1 3-1.715 1.46-2.222 1.915-2.215 1.898C61.916 85.877 61.916 85.877 61 88l-2-1 2-3h2l.75-1.75C65.167 79.7 66.876 77.982 69 76"/><path fill="#F4DF79" d="m156 482 10 1 1 3 3 1c-5.277-.539-9.256-1.773-14-4z"/><path fill="#787878" d="M84 63c-3.125 6.25-3.125 6.25-7.062 8.125l-2.223 1.07L73 73c1.137-3.41 2.258-4.376 4.938-6.687l2.152-1.887C82 63 82 63 84 63"/><path fill="#F4DD62" d="M453 395c0 3 0 3-1 5h-2l-2 5-2-1 1-4h2v-3z"/><path fill="#D8645B" d="M494 296h2a348 348 0 0 1-.375 4.25c-.07.789-.14 1.578-.21 2.39-.43 2.446-1.201 4.208-2.415 6.36q-.04-2.97-.062-5.937l-.036-3.34C493 297 493 297 494 296"/><path fill="#F5D343" d="M429 420h3c-.398 2.886-.79 3.822-3.062 5.75L427 427c-.125-2.375-.125-2.375 0-5z"/><path fill="#F3E071" d="M16 339h3l1 10c-2.003-2.003-2.932-3.407-4-6z"/><path fill="#F0D85C" d="M20 347c3.31 1.655 3.789 4.654 5 8l-1 3c-2.478-3.663-3.49-6.61-4-11"/><path fill="#DC3729" d="M1 259c2 2 2 2 2.125 5.625L3 268H1c-1.125-6.75-1.125-6.75 0-9"/><path fill="#F5E06E" d="M97 448c2.313.188 2.313.188 5 1 1.813 2.563 1.813 2.563 3 5-3.914-1.27-5.79-2.512-8-6"/><path fill="#F2DF66" d="m88 441 6 1v3h2l1 3h-2v-2l-2.375-.812C90 444 90 444 88 441"/><path fill="#F3DE66" d="M476 353h2c-.7 3.147-1.76 6.026-3 9h-1c-.25-5.625-.25-5.625 2-9"/><path fill="#F2DD67" d="M381 460h5c-1.375 1.5-1.375 1.5-3 3h-2v2l-3-1h2z"/><path fill="#F4D855" d="m69 423 6 1v5a318 318 0 0 1-6-5z"/><path fill="#F3DC5D" d="M59 412h5v6l-1-2h-2z"/></svg>