<svg width="197" height="50" viewBox="0 0 197 50" fill="none" xmlns="http://www.w3.org/2000/svg">
<path d="M25 50C38.8071 50 50 38.8071 50 25C50 11.1929 38.8071 0 25 0C11.1929 0 0 11.1929 0 25C0 38.8071 11.1929 50 25 50Z" fill="url(#paint0_linear_40_21)"/>
<path d="M21.5555 13.4659L10.536 32.5607C9.82134 33.8041 9.82134 35.2905 10.536 36.5268C11.2506 37.7703 12.5369 38.5135 13.9733 38.5135H17.6465C19.0615 38.5135 20.3764 37.756 21.0838 36.5268L21.3411 36.0838C21.4054 36.2338 21.4769 36.3839 21.5627 36.5268C22.2773 37.7703 23.5636 38.5135 25 38.5135H28.6732C30.0881 38.5135 31.403 37.756 32.1105 36.5268L32.3678 36.0838C32.4321 36.2338 32.5036 36.3839 32.5893 36.5268C33.304 37.7703 34.5903 38.5135 36.0267 38.5135C37.4631 38.5135 38.7494 37.7703 39.464 36.5268C40.1787 35.2834 40.1787 33.797 39.464 32.5607C38.7494 31.3172 37.4631 30.574 36.0267 30.574C35.8623 30.574 35.698 30.5812 35.5336 30.6026L35.7909 30.1595C36.4983 28.9375 36.4983 27.4154 35.7909 26.1934L33.9543 23.0133C33.2396 21.7698 31.9533 21.0266 30.5169 21.0266C30.3525 21.0266 30.1882 21.0338 30.0238 21.0552L30.2811 20.6121C30.9886 19.3901 30.9886 17.868 30.2811 16.6459L28.4445 13.473C27.7299 12.2296 26.4435 11.4863 25.0071 11.4863C23.5708 11.4863 22.2844 12.2296 21.5698 13.473L21.5555 13.4659ZM36.0124 32.1462C36.8771 32.1462 37.656 32.5964 38.0848 33.3468C38.5136 34.0971 38.5207 34.9904 38.0848 35.7408C37.6489 36.4911 36.8771 36.9413 36.0124 36.9413C35.1477 36.9413 34.3687 36.4911 33.94 35.7408C33.5041 34.9904 33.5041 34.0971 33.94 33.3468C34.3759 32.5964 35.1477 32.1462 36.0124 32.1462ZM30.5026 22.5916C31.3673 22.5916 32.1463 23.0419 32.575 23.7922L34.4116 26.9723C34.8404 27.7084 34.8404 28.6302 34.4116 29.3663L30.7384 35.7336C30.3097 36.4697 29.5164 36.9342 28.666 36.9342H24.9929C24.1282 36.9342 23.3492 36.484 22.9204 35.7336C22.4845 34.9833 22.4845 34.09 22.9204 33.3396L28.4302 23.7851C28.8661 23.0347 29.6379 22.5845 30.5026 22.5845V22.5916ZM24.9929 13.0514C25.8576 13.0514 26.6365 13.5016 27.0653 14.252L28.9019 17.4249C29.3306 18.161 29.3306 19.0828 28.9019 19.8189L27.0653 23.0061L21.5555 32.5535L19.7189 35.7336C19.2901 36.4697 18.4969 36.9342 17.6465 36.9342H13.9733C13.1086 36.9342 12.3297 36.484 11.9009 35.7336C11.465 34.9833 11.465 34.09 11.9009 33.3396L22.9204 14.2448C23.3564 13.4944 24.1282 13.0442 24.9929 13.0442V13.0514Z" fill="white"/>
<path d="M17.6396 29.7648C17.7611 29.8363 17.8969 29.872 18.0327 29.872C18.3042 29.872 18.5687 29.7291 18.7116 29.4789L23.4353 21.3036C23.6496 20.9249 23.521 20.4461 23.1494 20.2317C22.7707 20.0173 22.2919 20.1459 22.0775 20.5175L17.3538 28.6929C17.1394 29.0716 17.268 29.5504 17.6396 29.7648Z" fill="white"/>
<path d="M27.5654 27.6495C27.6869 27.7209 27.8227 27.7567 27.9585 27.7567C28.23 27.7567 28.4944 27.6137 28.6373 27.3636L30.917 23.4189C31.1314 23.0401 31.0028 22.5613 30.6312 22.3469C30.2524 22.1326 29.7736 22.2612 29.5592 22.6328L27.2796 26.5775C27.0652 26.9563 27.1938 27.4351 27.5654 27.6495Z" fill="white"/>
<path d="M177.4 26.6322V23.3682H180.664V26.6322H177.4Z" fill="white"/>
<path d="M62.9892 36.5V18.29H55.9992V14.9H73.5942V18.29H66.6042V36.5H62.9892ZM80.9552 36.95C79.3152 36.95 77.8752 36.595 76.6352 35.885C75.3952 35.175 74.4252 34.19 73.7252 32.93C73.0352 31.67 72.6902 30.22 72.6902 28.58C72.6902 26.81 73.0302 25.275 73.7102 23.975C74.3902 22.665 75.3352 21.65 76.5452 20.93C77.7552 20.21 79.1552 19.85 80.7452 19.85C82.4252 19.85 83.8502 20.245 85.0202 21.035C86.2002 21.815 87.0752 22.92 87.6452 24.35C88.2152 25.78 88.4302 27.465 88.2902 29.405H84.7052V28.085C84.6952 26.325 84.3852 25.04 83.7752 24.23C83.1652 23.42 82.2052 23.015 80.8952 23.015C79.4152 23.015 78.3152 23.475 77.5952 24.395C76.8752 25.305 76.5152 26.64 76.5152 28.4C76.5152 30.04 76.8752 31.31 77.5952 32.21C78.3152 33.11 79.3652 33.56 80.7452 33.56C81.6352 33.56 82.4002 33.365 83.0402 32.975C83.6902 32.575 84.1902 32 84.5402 31.25L88.1102 32.33C87.4902 33.79 86.5302 34.925 85.2302 35.735C83.9402 36.545 82.5152 36.95 80.9552 36.95ZM75.3752 29.405V26.675H86.5202V29.405H75.3752ZM98.6721 36.95C97.0021 36.95 95.5771 36.58 94.3971 35.84C93.2171 35.09 92.3121 34.07 91.6821 32.78C91.0621 31.49 90.7471 30.03 90.7371 28.4C90.7471 26.74 91.0721 25.27 91.7121 23.99C92.3621 22.7 93.2821 21.69 94.4721 20.96C95.6621 20.22 97.0771 19.85 98.7171 19.85C100.557 19.85 102.112 20.315 103.382 21.245C104.662 22.165 105.497 23.425 105.887 25.025L102.287 26C102.007 25.13 101.542 24.455 100.892 23.975C100.242 23.485 99.5021 23.24 98.6721 23.24C97.7321 23.24 96.9571 23.465 96.3471 23.915C95.7371 24.355 95.2871 24.965 94.9971 25.745C94.7071 26.525 94.5621 27.41 94.5621 28.4C94.5621 29.94 94.9071 31.185 95.5971 32.135C96.2871 33.085 97.3121 33.56 98.6721 33.56C99.6321 33.56 100.387 33.34 100.937 32.9C101.497 32.46 101.917 31.825 102.197 30.995L105.887 31.82C105.387 33.47 104.512 34.74 103.262 35.63C102.012 36.51 100.482 36.95 98.6721 36.95ZM120.098 36.5V28.7C120.098 28.19 120.063 27.625 119.993 27.005C119.923 26.385 119.758 25.79 119.498 25.22C119.248 24.64 118.868 24.165 118.358 23.795C117.858 23.425 117.178 23.24 116.318 23.24C115.858 23.24 115.403 23.315 114.953 23.465C114.503 23.615 114.093 23.875 113.723 24.245C113.363 24.605 113.073 25.105 112.853 25.745C112.633 26.375 112.523 27.185 112.523 28.175L110.378 27.26C110.378 25.88 110.643 24.63 111.173 23.51C111.713 22.39 112.503 21.5 113.543 20.84C114.583 20.17 115.863 19.835 117.383 19.835C118.583 19.835 119.573 20.035 120.353 20.435C121.133 20.835 121.753 21.345 122.213 21.965C122.673 22.585 123.013 23.245 123.233 23.945C123.453 24.645 123.593 25.31 123.653 25.94C123.723 26.56 123.758 27.065 123.758 27.455V36.5H120.098ZM108.863 36.5V14.9H112.088V26.27H112.523V36.5H108.863ZM131.122 36.5L126.172 20.27L129.712 20.3L132.877 30.695L136.087 20.3H139.132L142.327 30.695L145.507 20.3H149.047L144.097 36.5H141.277L137.602 25.355L133.942 36.5H131.122ZM155.376 36.95C154.206 36.95 153.216 36.73 152.406 36.29C151.596 35.84 150.981 35.245 150.561 34.505C150.151 33.765 149.946 32.95 149.946 32.06C149.946 31.28 150.076 30.58 150.336 29.96C150.596 29.33 150.996 28.79 151.536 28.34C152.076 27.88 152.776 27.505 153.636 27.215C154.286 27.005 155.046 26.815 155.916 26.645C156.796 26.475 157.746 26.32 158.766 26.18C159.796 26.03 160.871 25.87 161.991 25.7L160.701 26.435C160.711 25.315 160.461 24.49 159.951 23.96C159.441 23.43 158.581 23.165 157.371 23.165C156.641 23.165 155.936 23.335 155.256 23.675C154.576 24.015 154.101 24.6 153.831 25.43L150.531 24.395C150.931 23.025 151.691 21.925 152.811 21.095C153.941 20.265 155.461 19.85 157.371 19.85C158.811 19.85 160.076 20.085 161.166 20.555C162.266 21.025 163.081 21.795 163.611 22.865C163.901 23.435 164.076 24.02 164.136 24.62C164.196 25.21 164.226 25.855 164.226 26.555V36.5H161.061V32.99L161.586 33.56C160.856 34.73 160.001 35.59 159.021 36.14C158.051 36.68 156.836 36.95 155.376 36.95ZM156.096 34.07C156.916 34.07 157.616 33.925 158.196 33.635C158.776 33.345 159.236 32.99 159.576 32.57C159.926 32.15 160.161 31.755 160.281 31.385C160.471 30.925 160.576 30.4 160.596 29.81C160.626 29.21 160.641 28.725 160.641 28.355L161.751 28.685C160.661 28.855 159.726 29.005 158.946 29.135C158.166 29.265 157.496 29.39 156.936 29.51C156.376 29.62 155.881 29.745 155.451 29.885C155.031 30.035 154.676 30.21 154.386 30.41C154.096 30.61 153.871 30.84 153.711 31.1C153.561 31.36 153.486 31.665 153.486 32.015C153.486 32.415 153.586 32.77 153.786 33.08C153.986 33.38 154.276 33.62 154.656 33.8C155.046 33.98 155.526 34.07 156.096 34.07ZM168.131 36.5V20.3H171.326V24.245L170.936 23.735C171.136 23.195 171.401 22.705 171.731 22.265C172.071 21.815 172.476 21.445 172.946 21.155C173.346 20.885 173.786 20.675 174.266 20.525C174.756 20.365 175.256 20.27 175.766 20.24C176.276 20.2 176.771 20.22 177.251 20.3V23.675C176.771 23.535 176.216 23.49 175.586 23.54C174.966 23.59 174.406 23.765 173.906 24.065C173.406 24.335 172.996 24.68 172.676 25.1C172.366 25.52 172.136 26 171.986 26.54C171.836 27.07 171.761 27.645 171.761 28.265V36.5H168.131ZM186.316 36.95C184.826 36.95 183.526 36.575 182.416 35.825C181.306 35.075 180.446 34.055 179.836 32.765C179.226 31.475 178.921 30.02 178.921 28.4C178.921 26.76 179.226 25.3 179.836 24.02C180.456 22.73 181.331 21.715 182.461 20.975C183.591 20.225 184.921 19.85 186.451 19.85C187.991 19.85 189.281 20.225 190.321 20.975C191.371 21.715 192.166 22.73 192.706 24.02C193.246 25.31 193.516 26.77 193.516 28.4C193.516 30.01 193.246 31.465 192.706 32.765C192.166 34.055 191.361 35.075 190.291 35.825C189.221 36.575 187.896 36.95 186.316 36.95ZM186.871 33.71C187.841 33.71 188.621 33.49 189.211 33.05C189.811 32.6 190.246 31.975 190.516 31.175C190.796 30.375 190.936 29.45 190.936 28.4C190.936 27.34 190.796 26.415 190.516 25.625C190.246 24.825 189.821 24.205 189.241 23.765C188.661 23.315 187.911 23.09 186.991 23.09C186.021 23.09 185.221 23.33 184.591 23.81C183.961 24.28 183.496 24.92 183.196 25.73C182.896 26.53 182.746 27.42 182.746 28.4C182.746 29.39 182.891 30.29 183.181 31.1C183.481 31.9 183.936 32.535 184.546 33.005C185.156 33.475 185.931 33.71 186.871 33.71ZM190.936 36.5V25.13H190.486V14.9H194.131V36.5H190.936Z" fill="#A03028"/>
<defs>
<linearGradient id="paint0_linear_40_21" x1="0.127036" y1="24.9664" x2="50" y2="24.9725" gradientUnits="userSpaceOnUse">
<stop stop-color="#A93E17"/>
<stop offset="1" stop-color="#15399A"/>
</linearGradient>
</defs>
</svg>
