<?xml version="1.0" encoding="UTF-8"?>
<svg version="1.1" xmlns="http://www.w3.org/2000/svg" width="100" height="100">
<path d="M0 0 C13.39226519 6.6961326 13.39226519 6.6961326 18.4375 9.8125 C26.1317079 14.51198173 33.90669552 19.07106438 41.6875 23.625 C42.92310742 24.34869419 44.15870333 25.07240803 45.39428711 25.79614258 C45.99499527 26.14773941 46.59570343 26.49933624 47.21461487 26.86158752 C48.40410026 27.55821037 49.59310335 28.25565747 50.78160095 28.95396423 C53.69614134 30.66409578 56.61923365 32.3547888 59.56494141 34.01074219 C60.66370605 34.63368164 61.7624707 35.25662109 62.89453125 35.8984375 C63.8791333 36.44935059 64.86373535 37.00026367 65.87817383 37.56787109 C66.57837646 38.04047363 67.2785791 38.51307617 68 39 C68 39.66 68 40.32 68 41 C67.13503906 41.47566406 66.27007812 41.95132813 65.37890625 42.44140625 C56.85562435 47.16573964 48.46754379 52.08855851 40.125 57.125 C30.96618206 62.65039846 21.7617923 68.08719592 12.5 73.4375 C11.36578613 74.09443848 10.23157227 74.75137695 9.06298828 75.42822266 C7.50040283 76.32806885 7.50040283 76.32806885 5.90625 77.24609375 C4.51889648 78.04551392 4.51889648 78.04551392 3.10351562 78.86108398 C1 80 1 80 0 80 C0 53.6 0 27.2 0 0 Z M4 9 C4 29.46 4 49.92 4 71 C8.80940961 69.39686346 11.8760638 68.03685468 16.0625 65.4375 C24.71018498 60.12887186 33.47179585 55.02004046 42.23416138 49.90402222 C44.12007172 48.80262129 46.00536582 47.70017126 47.890625 46.59765625 C48.99438477 45.95320557 50.09814453 45.30875488 51.23535156 44.64477539 C53.18914062 43.48240548 55.10840809 42.26106127 57 41 C57 40.34 57 39.68 57 39 C54.57452873 37.29817291 54.57452873 37.29817291 51.4296875 35.54296875 C50.84493149 35.20324036 50.26017548 34.86351196 49.65769958 34.51348877 C47.73407054 33.39785826 45.80466031 32.29266018 43.875 31.1875 C42.55449833 30.42465909 41.23443195 29.6610642 39.91479492 28.89672852 C37.90625351 27.73348184 35.89742135 26.57077784 33.88694763 25.41087341 C29.65374679 22.96713116 25.44241244 20.49095588 21.24609375 17.984375 C20.23756348 17.38214111 19.2290332 16.77990723 18.18994141 16.15942383 C16.30125304 15.02919143 14.41415223 13.89630102 12.52880859 12.76049805 C11.69043457 12.26074463 10.85206055 11.76099121 9.98828125 11.24609375 C9.26165283 10.80966553 8.53502441 10.3732373 7.78637695 9.92358398 C6.03906799 8.84691187 6.03906799 8.84691187 4 9 Z " fill="#FFFFFF" transform="translate(20,10)"/>
</svg>
