<svg xmlns="http://www.w3.org/2000/svg" width="28.246" height="28.246" viewBox="0 0 28.246 28.246">
  <path id="Path_2483" data-name="Path 2483" d="M1714.639,612.333a14.123,14.123,0,1,0,14.123,14.123A14.123,14.123,0,0,0,1714.639,612.333Zm10.906,17.35-3.931.906-2.4-2.486.912-3.7,2.472-1.349,3.72,1.787a11.673,11.673,0,0,1-.334,4.831,1.16,1.16,0,0,0-.437.015ZM1713.7,617.5l-.186,3.452-3.335,1.854-2.67-.892-1.182-3.805a11.815,11.815,0,0,1,4.254-2.721Zm-.878,20.6a11.75,11.75,0,0,1-6.006-2.843l1.064-3.786h4.331l2.655,3.114Zm2.635.11,1.841-3.167a1.168,1.168,0,0,0-.12-1.344l-3.541-4.154a1.167,1.167,0,0,0-.888-.41h-5.754a1.167,1.167,0,0,0-1.124.851l-.9,3.2a11.76,11.76,0,0,1-.4-12.855l.884,2.846a1.167,1.167,0,0,0,.745.761l3.727,1.244a1.166,1.166,0,0,0,.937-.088l4.346-2.417a1.167,1.167,0,0,0,.6-.957l.256-4.754a1.168,1.168,0,0,0-.51-1.029l-1.82-1.233c.3-.023.6-.039.909-.039a11.808,11.808,0,0,1,10.852,7.185l-2.429-1.164a1.165,1.165,0,0,0-1.064.027l-3.448,1.883a1.166,1.166,0,0,0-.574.745l-1.191,4.826a1.167,1.167,0,0,0,.294,1.089l3.308,3.424a1.166,1.166,0,0,0,.839.357,1.147,1.147,0,0,0,.262-.03l3.422-.789a11.8,11.8,0,0,1-9.463,5.991Z" transform="translate(-1700.516 -612.333)" fill="#fff"/>
</svg>
